<svg width="232" height="43" viewBox="0 0 232 43" fill="none" xmlns="http://www.w3.org/2000/svg">
<path d="M4.12507 38.7322C0.231368 33.1746 3.39593 25.4687 10.2209 24.2466C11.3584 24.0429 12.5066 24.0279 13.6331 24.2315C14.309 24.3536 14.5458 24.1387 14.7269 23.541C16.512 17.6479 20.513 14.1118 26.665 12.9566C32.5221 11.8568 39.3301 15.3737 41.7594 20.7307C42.0451 21.3608 42.3972 21.6451 43.0977 21.8025C48.1652 22.9405 51.5402 27.372 51.4474 32.6747C51.3663 37.3069 47.6342 41.4745 42.7038 42.4037C42.1302 42.5118 41.5282 42.5023 40.9394 42.5026C31.3009 42.5072 21.6622 42.4714 12.024 42.5222C8.73186 42.5395 6.18606 41.2561 4.12507 38.7322ZM34.863 20.2339C35.6411 20.9011 35.9457 21.6908 35.4653 22.6493C34.9781 23.6212 34.1619 24.0062 33.0894 23.7762C32.6386 23.6795 32.3166 23.8028 31.9713 24.0577C31.2936 24.5581 30.5887 25.0229 29.8967 25.5046C25.6042 28.4925 21.9309 31.9465 20.5647 37.1868C20.3415 38.0428 19.6993 38.6192 18.7675 38.7666C17.7799 38.9228 16.9419 38.6638 16.3394 37.8278C16.1714 37.5947 15.9957 37.2349 15.7727 37.193C14.0994 36.8785 13.0571 35.503 11.5785 34.8645C10.7569 34.5097 10.3073 33.8231 10.6035 32.9202C10.8857 32.0601 11.6092 31.7823 12.4654 31.959C13.5014 32.1727 13.7515 32.9079 13.6455 33.8492C13.531 34.8651 14.442 35.0251 15.0669 35.3964C15.6278 35.7298 16.0032 35.5021 16.4865 35.0603C17.9952 33.6814 17.6521 30.288 15.6421 28.6516C13.5752 26.9688 10.6894 26.8024 8.32305 28.2919C6.23958 29.6034 5.09998 32.4521 5.74287 34.7417C6.53258 37.5542 8.66636 39.2999 11.4542 39.3248C14.8153 39.355 18.1773 39.3004 21.5381 39.3414C22.4955 39.3531 22.6974 38.9681 22.7195 38.1175C22.8431 33.3627 26.1786 29.5701 30.921 28.6785C32.2954 28.4201 33.6843 28.1762 35.0153 27.766C39.6793 26.3286 40.5585 23.0992 37.2049 19.5923C34.0815 16.326 30.1992 15.2058 25.8068 16.4125C21.3219 17.6446 18.6784 20.7067 17.589 25.1063C17.4446 25.6895 17.6973 26.0584 18.0825 26.4426C19.7196 28.0759 20.4867 30.0437 20.4088 32.3348C20.3968 32.6883 20.2637 33.0814 20.5662 33.5079C21.4893 32.1228 22.2846 30.7821 23.3042 29.5839C25.3882 27.1346 27.9715 25.2782 30.6401 23.5167C31.2148 23.1373 31.6203 22.7735 31.608 21.9738C31.5808 20.1895 33.0095 19.3851 34.863 20.2339ZM34.2347 21.851C34.2222 21.4108 33.9992 21.1852 33.5442 21.2483C33.263 21.2873 33.1007 21.4802 33.0628 21.7546C33.026 22.0204 33.0896 22.2665 33.3565 22.3851C33.7793 22.5731 34.0454 22.3769 34.2347 21.851ZM18.2559 37.1401C18.8351 37.0824 19.0566 36.7651 18.8314 36.2489C18.6942 35.9344 18.3311 35.8837 18.0719 36.067C17.6107 36.3931 17.612 36.7743 18.2559 37.1401Z" fill="url(#paint0_linear_128_343)"/>
<path d="M14.2233 10.9366C15.6361 14.4462 14.4198 17.4259 12.6556 20.3566C11.6467 19.5674 11.1049 18.2896 10.1448 14.6631C10.1541 15.7374 10.3314 16.7931 10.6094 17.8307C10.8864 18.8651 11.2057 19.8886 11.5162 20.9501C9.55011 20.5812 5.91011 16.4671 5.70428 13.1837C5.48646 9.7091 8.29734 4.81526 11.0994 4C11.0544 5.91484 12.4135 7.23192 13.1874 8.80227C13.5245 9.48625 13.8597 10.1711 14.2233 10.9366Z" fill="url(#paint1_linear_128_343)"/>
<path d="M52.3904 21.4666C52.2109 20.8998 52.0527 20.4178 51.9159 19.93C51.7209 19.2348 51.4051 18.7647 50.5862 18.5402C49.5883 18.2666 49.0964 17.4225 49.326 16.4171C49.5023 15.6454 49.2614 15.13 48.8064 14.5526C46.1922 11.2357 42.7967 9.03933 38.763 7.74093C38.241 7.57292 37.771 7.47565 37.2125 7.86417C36.4389 8.40234 35.5725 8.30165 34.9283 7.5643C34.5824 7.16841 34.2139 6.99354 33.6967 6.9789C30.1454 6.8784 26.724 7.53594 23.3634 8.60456C22.7269 8.80696 22.6078 9.31704 22.3535 9.79171C21.8443 10.7421 21.017 11.2449 19.9104 11.1534C18.8495 11.0657 18.1314 10.4672 17.8058 9.4836C17.464 8.45104 17.7485 7.55269 18.5827 6.84064C19.5672 6.00041 21.0833 6.07991 21.9332 7.1544C22.3834 7.72356 22.7365 7.69284 23.3164 7.50883C26.8151 6.39864 30.3819 5.70567 34.0858 5.99449C34.4768 6.02499 34.6753 5.85961 34.9228 5.61016C35.8959 4.62945 36.9751 4.6977 37.6642 5.83051C37.9402 6.28436 38.2722 6.50501 38.7509 6.64587C43.3074 7.98661 47.0864 10.4523 50.0058 14.1486C50.2905 14.509 50.5703 14.7057 51.1036 14.6966C52.9004 14.6662 53.9037 16.2059 53.0399 17.7222C52.6645 18.3813 52.6923 18.8778 52.9509 19.5336C53.7914 21.6653 54.2895 23.8878 54.5598 26.1552C54.6199 26.6587 54.817 26.9908 55.2226 27.3211C56.1507 28.0767 56.2415 29.2011 55.5294 30.0039C54.8921 30.7224 53.7912 30.8029 53.0431 30.1858C52.2229 29.5092 52.1004 28.475 52.9026 27.5991C53.4948 26.9524 53.4254 26.2728 53.312 25.5711C53.0929 24.2157 52.8492 22.8617 52.3904 21.4666ZM19.5348 9.46697C20.1017 9.89688 20.5868 9.73469 20.9433 9.2111C21.2177 8.808 21.1545 8.38266 20.771 8.03819C20.4247 7.72709 20.0409 7.67667 19.6724 7.96804C19.1891 8.3502 18.9635 8.80489 19.5348 9.46697Z" fill="url(#paint2_linear_128_343)"/>
<path d="M2.27625 18.7304C4.70224 17.5906 6.29712 17.8293 8.01918 19.3729C8.68322 19.9682 8.79963 20.6105 7.86669 21.3268C6.43835 22.4235 4.80481 22.856 3.00653 22.0721C2.17228 21.7084 1.40002 21.2172 0.469345 21.0377C-0.186906 20.9112 -0.0770221 20.4652 0.323366 20.0886C0.883947 19.5613 1.51583 19.1271 2.27625 18.7304Z" fill="#187329"/>
<path d="M54.5509 31.9844C54.2064 34.109 53.7754 36.1252 53.0373 38.0606C52.8314 38.6008 53.0551 38.925 53.3243 39.3341C53.9658 40.3087 53.8541 41.4239 53.0978 42.236C52.4148 42.9693 51.2786 43.2064 50.3568 42.808C49.4063 42.3971 48.8151 41.3961 48.9431 40.3334C49.072 39.2633 49.7682 38.6359 50.7899 38.4357C51.5116 38.2942 51.8488 37.9279 52.0767 37.2815C52.6935 35.5326 53.1234 33.7453 53.3769 31.9149C53.4246 31.5701 53.5225 31.2433 53.9251 31.204C54.4134 31.1564 54.5492 31.4873 54.5509 31.9844ZM50.7137 40.6059C50.731 41.203 51.0829 41.3617 51.5779 41.1433C51.8935 41.0041 52.0735 40.657 51.8128 40.3483C51.4421 39.9094 51.0652 40.0261 50.7137 40.6059Z" fill="#E5733D"/>
<path d="M39.3938 37.9997C39.1886 37.9997 39.0121 37.9445 38.8644 37.834C38.7166 37.7144 38.5976 37.5303 38.5073 37.2817L36.7219 32.1733C36.648 31.9524 36.6234 31.7591 36.648 31.5934C36.6809 31.4185 36.7588 31.2805 36.882 31.1792C37.0051 31.078 37.1693 31.0273 37.3745 31.0273C37.5551 31.0273 37.7028 31.078 37.8178 31.1792C37.9327 31.2713 38.0312 31.4507 38.1133 31.7177L39.6032 36.3153H39.32L40.8591 31.6072C40.9248 31.4047 41.011 31.2575 41.1177 31.1654C41.2326 31.0734 41.3803 31.0273 41.5609 31.0273C41.7415 31.0273 41.8893 31.078 42.0042 31.1792C42.1191 31.2713 42.2053 31.4139 42.2628 31.6072L43.7773 36.3153H43.5187L45.0209 31.6763C45.103 31.4277 45.2056 31.2575 45.3287 31.1654C45.4601 31.0734 45.6037 31.0273 45.7597 31.0273C45.9567 31.0273 46.1086 31.0826 46.2153 31.193C46.322 31.3035 46.3835 31.4461 46.4 31.621C46.4164 31.7867 46.3876 31.9708 46.3138 32.1733L44.5407 37.2817C44.4586 37.5211 44.3396 37.7005 44.1836 37.8202C44.0359 37.9399 43.8594 37.9997 43.6542 37.9997C43.4489 37.9997 43.2683 37.9399 43.1124 37.8202C42.9646 37.7005 42.8497 37.5211 42.7676 37.2817L41.1546 32.4908H41.8564L40.2804 37.2679C40.1983 37.5165 40.0834 37.7005 39.9356 37.8202C39.7879 37.9399 39.6073 37.9997 39.3938 37.9997Z" fill="white"/>
<path d="M28.7619 38.0002C28.5157 38.0002 28.3269 37.9266 28.1955 37.7793C28.0642 37.6228 27.9985 37.4019 27.9985 37.1166V31.8977C27.9985 31.6123 28.0642 31.396 28.1955 31.2488C28.3269 31.1015 28.5116 31.0279 28.7496 31.0279C28.9877 31.0279 29.1724 31.1015 29.3037 31.2488C29.4351 31.396 29.5007 31.6123 29.5007 31.8977V32.8365L29.3653 32.4914C29.5459 32.0035 29.825 31.6353 30.2026 31.3868C30.5884 31.1291 31.0234 31.0002 31.5078 31.0002C31.9921 31.0002 32.3902 31.1015 32.7021 31.304C33.014 31.5065 33.248 31.8148 33.404 32.229C33.5599 32.634 33.6379 33.1495 33.6379 33.7754V37.1166C33.6379 37.4019 33.5722 37.6228 33.4409 37.7793C33.3096 37.9266 33.1208 38.0002 32.8745 38.0002C32.6282 38.0002 32.4353 37.9266 32.2958 37.7793C32.1644 37.6228 32.0988 37.4019 32.0988 37.1166V33.8582C32.0988 33.3336 32.0085 32.9516 31.8279 32.7123C31.6555 32.473 31.3846 32.3533 31.0152 32.3533C30.5638 32.3533 30.2026 32.5144 29.9317 32.8365C29.669 33.1495 29.5377 33.5683 29.5377 34.0929V37.1166C29.5377 37.7057 29.2791 38.0002 28.7619 38.0002Z" fill="white"/>
<path d="M12.9292 32.2044C13.0003 32.4413 12.7885 32.6746 12.4561 32.7253C12.1236 32.776 11.7964 32.625 11.7252 32.3881C11.654 32.1511 11.8658 31.9179 12.1983 31.8671C12.5308 31.8164 12.858 31.9674 12.9292 32.2044Z" fill="white"/>
<path d="M37.4433 2.92215C37.5011 3.23448 37.1926 3.52102 36.7544 3.56217C36.3161 3.60331 35.9141 3.38347 35.8564 3.07114C35.7986 2.75881 36.1071 2.47226 36.5453 2.43112C36.9836 2.38998 37.3856 2.60982 37.4433 2.92215Z" fill="white"/>
<path d="M52.6468 13.9204C52.718 14.1573 52.4792 14.3946 52.1134 14.4504C51.7477 14.5062 51.3935 14.3594 51.3224 14.1224C51.2512 13.8855 51.49 13.6481 51.8557 13.5923C52.2214 13.5365 52.5756 13.6834 52.6468 13.9204Z" fill="white"/>
<path d="M55.7771 27.5161C55.8625 27.8005 55.6083 28.0803 55.2093 28.1412C54.8103 28.2021 54.4177 28.0209 54.3323 27.7365C54.2468 27.4522 54.501 27.1723 54.9 27.1115C55.299 27.0506 55.6917 27.2318 55.7771 27.5161Z" fill="white"/>
<path d="M2.40015 17.9899C2.40015 17.9899 4.63662 17.9899 6.10777 17.9899C7.57891 17.9899 8.00339 17.5512 8.55667 17.5512C9.10994 17.5512 9.18615 18.4287 8.55667 18.4287C7.92719 18.4287 2.40015 17.9899 2.40015 17.9899Z" fill="white"/>
<path d="M226.395 37.5885C224.816 37.5885 223.456 37.2743 222.313 36.646C221.188 35.9974 220.317 35.0955 219.701 33.9402C219.102 32.7647 218.803 31.3865 218.803 29.8056C218.803 28.2652 219.093 26.9174 219.673 25.7621C220.254 24.5866 221.061 23.6745 222.095 23.026C223.147 22.3571 224.336 22.0227 225.66 22.0227C226.621 22.0227 227.492 22.2051 228.272 22.5699C229.052 22.9145 229.723 23.4212 230.286 24.09C230.848 24.7386 231.274 25.5392 231.565 26.4918C231.855 27.4241 232 28.4679 232 29.6232C232 30.0083 231.891 30.3021 231.674 30.5048C231.456 30.6872 231.138 30.7784 230.721 30.7784H222.177V28.4071H229.034L228.599 28.8327C228.599 28.0017 228.49 27.3126 228.272 26.7654C228.054 26.1979 227.737 25.7723 227.32 25.4885C226.921 25.2048 226.422 25.0629 225.823 25.0629C225.152 25.0629 224.581 25.2352 224.109 25.5797C223.637 25.9243 223.274 26.4208 223.02 27.0694C222.766 27.718 222.639 28.4983 222.639 29.4104V29.6536C222.639 31.1939 222.957 32.3289 223.592 33.0586C224.245 33.7882 225.206 34.153 226.476 34.153C226.912 34.153 227.411 34.0922 227.973 33.9706C228.535 33.849 229.061 33.6565 229.551 33.393C229.968 33.1701 230.34 33.0991 230.667 33.1802C230.993 33.241 231.247 33.4031 231.429 33.6666C231.61 33.9301 231.71 34.2341 231.728 34.5787C231.764 34.9232 231.701 35.2678 231.538 35.6123C231.374 35.9366 231.102 36.2102 230.721 36.4332C230.104 36.8183 229.406 37.102 228.626 37.2844C227.864 37.4871 227.12 37.5885 226.395 37.5885Z" fill="url(#paint3_linear_128_343)"/>
<path d="M211.178 37.5885C210.38 37.5885 209.555 37.5074 208.702 37.3452C207.868 37.1831 207.106 36.9095 206.416 36.5244C206.054 36.3217 205.791 36.0684 205.627 35.7643C205.482 35.4401 205.419 35.1158 205.437 34.7915C205.455 34.4672 205.546 34.1733 205.709 33.9098C205.89 33.6464 206.117 33.4741 206.389 33.393C206.679 33.2917 206.997 33.3221 207.342 33.4842C208.085 33.8288 208.766 34.072 209.382 34.2139C209.999 34.3557 210.607 34.4267 211.206 34.4267C211.986 34.4267 212.548 34.2949 212.893 34.0314C213.256 33.7477 213.437 33.3829 213.437 32.937C213.437 32.5316 213.319 32.2276 213.083 32.0249C212.847 31.8222 212.503 31.6804 212.049 31.5993L209.192 31.0217C208.067 30.7987 207.197 30.3427 206.58 29.6536C205.981 28.9442 205.682 28.0423 205.682 26.9478C205.682 25.9344 205.936 25.0629 206.444 24.3332C206.952 23.5833 207.65 23.0158 208.539 22.6307C209.446 22.2254 210.471 22.0227 211.614 22.0227C212.43 22.0227 213.183 22.1038 213.872 22.2659C214.562 22.4281 215.224 22.6915 215.859 23.0564C216.185 23.2388 216.412 23.482 216.539 23.786C216.684 24.09 216.729 24.4042 216.675 24.7285C216.639 25.0528 216.53 25.3466 216.348 25.6101C216.167 25.8736 215.931 26.0459 215.641 26.127C215.369 26.208 215.051 26.1675 214.689 26.0054C214.108 25.7013 213.573 25.4885 213.083 25.3669C212.593 25.225 212.122 25.1541 211.668 25.1541C210.852 25.1541 210.262 25.3061 209.899 25.6101C209.537 25.8939 209.355 26.2587 209.355 26.7046C209.355 27.0491 209.455 27.343 209.655 27.5862C209.872 27.8092 210.199 27.9612 210.634 28.0423L213.491 28.6199C214.67 28.8429 215.568 29.2888 216.185 29.9576C216.802 30.6062 217.11 31.498 217.11 32.633C217.11 34.1733 216.566 35.3894 215.478 36.2812C214.407 37.1527 212.974 37.5885 211.178 37.5885Z" fill="url(#paint4_linear_128_343)"/>
<path d="M200.849 37.4974C200.178 37.4974 199.661 37.2846 199.298 36.8589C198.954 36.413 198.781 35.7949 198.781 35.0044V24.607C198.781 23.7963 198.954 23.1781 199.298 22.7525C199.661 22.3066 200.178 22.0836 200.849 22.0836C201.502 22.0836 202.001 22.3066 202.346 22.7525C202.709 23.1781 202.89 23.7963 202.89 24.607V35.0044C202.89 35.7949 202.718 36.413 202.373 36.8589C202.029 37.2846 201.521 37.4974 200.849 37.4974ZM200.849 19.5907C200.088 19.5907 199.498 19.3981 199.081 19.013C198.682 18.6077 198.482 18.0402 198.482 17.3105C198.482 16.5606 198.682 15.9931 199.081 15.608C199.498 15.2027 200.088 15 200.849 15C201.611 15 202.192 15.2027 202.591 15.608C202.99 15.9931 203.19 16.5606 203.19 17.3105C203.19 18.0402 202.99 18.6077 202.591 19.013C202.192 19.3981 201.611 19.5907 200.849 19.5907Z" fill="url(#paint5_linear_128_343)"/>
<path d="M174.482 37.5277C173.902 37.5277 173.43 37.3757 173.067 37.0716C172.704 36.7474 172.414 36.2609 172.197 35.6123L166.7 18.3441C166.464 17.5739 166.509 16.9152 166.836 16.368C167.181 15.8207 167.77 15.5471 168.605 15.5471C169.185 15.5471 169.63 15.6991 169.938 16.0031C170.265 16.3072 170.528 16.7835 170.727 17.432L175.217 32.3593H174.047L178.782 17.4624C178.999 16.8139 179.262 16.3376 179.571 16.0336C179.897 15.7093 180.324 15.5471 180.85 15.5471C181.358 15.5471 181.766 15.7093 182.074 16.0336C182.383 16.3376 182.646 16.824 182.863 17.4928L187.38 32.3593H186.373L190.945 17.432C191.126 16.8037 191.38 16.3376 191.707 16.0336C192.033 15.7093 192.478 15.5471 193.04 15.5471C193.748 15.5471 194.265 15.8207 194.591 16.368C194.918 16.9152 194.954 17.5739 194.7 18.3441L189.149 35.6427C188.949 36.2711 188.677 36.7474 188.333 37.0716C187.988 37.3757 187.516 37.5277 186.918 37.5277C186.337 37.5277 185.875 37.3757 185.53 37.0716C185.185 36.7474 184.904 36.2609 184.686 35.6123L180.387 22.0227H181.04L176.686 35.6427C176.469 36.2711 176.187 36.7474 175.843 37.0716C175.516 37.3757 175.063 37.5277 174.482 37.5277Z" fill="url(#paint6_linear_128_343)"/>
<path d="M162.583 37.5888C161.331 37.5888 160.279 37.3557 159.427 36.8895C158.592 36.4234 157.966 35.7444 157.549 34.8526C157.15 33.9608 156.95 32.8359 156.95 31.478V25.7624H155.808C155.3 25.7624 154.901 25.6104 154.61 25.3064C154.338 25.0024 154.202 24.5869 154.202 24.0599C154.202 23.4924 154.338 23.0668 154.61 22.7831C154.901 22.479 155.3 22.327 155.808 22.327H156.95V20.0165C156.95 19.2463 157.132 18.6687 157.495 18.2836C157.858 17.8782 158.365 17.6755 159.019 17.6755C159.69 17.6755 160.198 17.8782 160.542 18.2836C160.887 18.6687 161.059 19.2463 161.059 20.0165V22.327H163.644C164.152 22.327 164.542 22.479 164.814 22.7831C165.087 23.0668 165.223 23.4924 165.223 24.0599C165.223 24.5869 165.087 25.0024 164.814 25.3064C164.542 25.6104 164.152 25.7624 163.644 25.7624H161.059V31.2956C161.059 32.1468 161.232 32.7853 161.576 33.2109C161.939 33.6365 162.511 33.8493 163.291 33.8493C163.563 33.8493 163.817 33.8189 164.053 33.7581C164.288 33.6973 164.506 33.6568 164.706 33.6365C164.96 33.6162 165.168 33.7075 165.331 33.9101C165.495 34.0925 165.576 34.508 165.576 35.1566C165.576 35.643 165.504 36.0687 165.359 36.4335C165.214 36.7983 164.96 37.0618 164.597 37.2239C164.361 37.3253 164.034 37.4063 163.617 37.4671C163.218 37.5482 162.873 37.5888 162.583 37.5888Z" fill="url(#paint7_linear_128_343)"/>
<path d="M148.109 37.5885C146.531 37.5885 145.171 37.2743 144.028 36.646C142.903 35.9974 142.032 35.0955 141.416 33.9402C140.817 32.7647 140.518 31.3865 140.518 29.8056C140.518 28.2652 140.808 26.9174 141.388 25.7621C141.969 24.5866 142.776 23.6745 143.81 23.026C144.862 22.3571 146.05 22.0227 147.375 22.0227C148.336 22.0227 149.207 22.2051 149.987 22.5699C150.767 22.9145 151.438 23.4212 152.001 24.09C152.563 24.7386 152.989 25.5392 153.28 26.4918C153.57 27.4241 153.715 28.4679 153.715 29.6232C153.715 30.0083 153.606 30.3021 153.388 30.5048C153.171 30.6872 152.853 30.7784 152.436 30.7784H143.892V28.4071H150.749L150.314 28.8327C150.314 28.0017 150.205 27.3126 149.987 26.7654C149.769 26.1979 149.452 25.7723 149.035 25.4885C148.636 25.2048 148.137 25.0629 147.538 25.0629C146.867 25.0629 146.295 25.2352 145.824 25.5797C145.352 25.9243 144.989 26.4208 144.735 27.0694C144.481 27.718 144.354 28.4983 144.354 29.4104V29.6536C144.354 31.1939 144.672 32.3289 145.307 33.0586C145.96 33.7882 146.921 34.153 148.191 34.153C148.626 34.153 149.125 34.0922 149.688 33.9706C150.25 33.849 150.776 33.6565 151.266 33.393C151.683 33.1701 152.055 33.0991 152.382 33.1802C152.708 33.241 152.962 33.4031 153.144 33.6666C153.325 33.9301 153.425 34.2341 153.443 34.5787C153.479 34.9232 153.416 35.2678 153.252 35.6123C153.089 35.9366 152.817 36.2102 152.436 36.4332C151.819 36.8183 151.121 37.102 150.341 37.2844C149.579 37.4871 148.835 37.5885 148.109 37.5885Z" fill="url(#paint8_linear_128_343)"/>
<path d="M122.996 37.5277C122.361 37.5277 121.871 37.3351 121.526 36.95C121.2 36.5447 121.036 35.9772 121.036 35.2475V17.9185C121.036 17.1483 121.2 16.5605 121.526 16.1552C121.871 15.7498 122.324 15.5471 122.887 15.5471C123.377 15.5471 123.748 15.6586 124.002 15.8815C124.274 16.0842 124.583 16.4288 124.928 16.9152L134.479 30.5048H133.744V17.7969C133.744 17.0875 133.907 16.5402 134.234 16.1552C134.578 15.7498 135.068 15.5471 135.703 15.5471C136.338 15.5471 136.819 15.7498 137.145 16.1552C137.49 16.5402 137.662 17.0875 137.662 17.7969V35.3387C137.662 36.0076 137.508 36.5447 137.2 36.95C136.891 37.3351 136.474 37.5277 135.948 37.5277C135.44 37.5277 135.032 37.4162 134.724 37.1932C134.433 36.9703 134.116 36.6156 133.771 36.1292L124.247 22.5395H124.955V35.2475C124.955 35.9772 124.792 36.5447 124.465 36.95C124.138 37.3351 123.649 37.5277 122.996 37.5277Z" fill="url(#paint9_linear_128_343)"/>
<path d="M106.142 43C105.471 43 104.954 42.7973 104.591 42.392C104.247 42.0069 104.074 41.4292 104.074 40.659V24.3941C104.074 23.6441 104.247 23.0766 104.591 22.6915C104.954 22.2862 105.453 22.0835 106.088 22.0835C106.759 22.0835 107.267 22.2862 107.612 22.6915C107.956 23.0766 108.129 23.6441 108.129 24.3941V26.4614L107.829 25.2757C108.101 24.3028 108.646 23.5225 109.462 22.9348C110.296 22.3267 111.249 22.0227 112.319 22.0227C113.48 22.0227 114.496 22.3369 115.367 22.9652C116.256 23.5935 116.945 24.4853 117.435 25.6405C117.925 26.7958 118.17 28.174 118.17 29.7752C118.17 31.3763 117.925 32.7647 117.435 33.9402C116.945 35.1158 116.265 36.0177 115.394 36.646C114.523 37.2743 113.498 37.5885 112.319 37.5885C111.267 37.5885 110.333 37.3047 109.516 36.7372C108.7 36.1494 108.147 35.3894 107.857 34.4571H108.183V40.659C108.183 41.4292 108.002 42.0069 107.639 42.392C107.294 42.7973 106.795 43 106.142 43ZM111.095 34.1531C111.675 34.1531 112.183 33.9909 112.618 33.6666C113.072 33.3423 113.417 32.866 113.653 32.2377C113.906 31.5892 114.033 30.7683 114.033 29.7752C114.033 28.2956 113.761 27.2113 113.217 26.5222C112.673 25.8128 111.965 25.4581 111.095 25.4581C110.514 25.4581 109.997 25.6101 109.544 25.9141C109.108 26.2182 108.764 26.6945 108.51 27.343C108.256 27.9713 108.129 28.7821 108.129 29.7752C108.129 31.2547 108.401 32.3593 108.945 33.089C109.489 33.7984 110.206 34.1531 111.095 34.1531Z" fill="url(#paint10_linear_128_343)"/>
<path d="M89.5341 43C88.8629 43 88.3459 42.7973 87.9831 42.392C87.6384 42.0069 87.4661 41.4292 87.4661 40.659V24.3941C87.4661 23.6441 87.6384 23.0766 87.9831 22.6915C88.3459 22.2862 88.8448 22.0835 89.4797 22.0835C90.1509 22.0835 90.6588 22.2862 91.0035 22.6915C91.3482 23.0766 91.5205 23.6441 91.5205 24.3941V26.4614L91.2212 25.2757C91.4933 24.3028 92.0375 23.5225 92.8539 22.9348C93.6883 22.3267 94.6407 22.0227 95.711 22.0227C96.872 22.0227 97.8879 22.3369 98.7587 22.9652C99.6476 23.5935 100.337 24.4853 100.827 25.6405C101.317 26.7958 101.561 28.174 101.561 29.7752C101.561 31.3763 101.317 32.7647 100.827 33.9402C100.337 35.1158 99.6566 36.0177 98.7859 36.646C97.9151 37.2743 96.8902 37.5885 95.711 37.5885C94.6589 37.5885 93.7246 37.3047 92.9083 36.7372C92.0919 36.1494 91.5387 35.3894 91.2484 34.4571H91.5749V40.659C91.5749 41.4292 91.3935 42.0069 91.0307 42.392C90.686 42.7973 90.1872 43 89.5341 43ZM94.4865 34.1531C95.067 34.1531 95.575 33.9909 96.0103 33.6666C96.4639 33.3423 96.8085 32.866 97.0444 32.2377C97.2983 31.5892 97.4253 30.7683 97.4253 29.7752C97.4253 28.2956 97.1532 27.2113 96.609 26.5222C96.0648 25.8128 95.3573 25.4581 94.4865 25.4581C93.906 25.4581 93.389 25.6101 92.9355 25.9141C92.5001 26.2182 92.1554 26.6945 91.9015 27.343C91.6475 27.9713 91.5205 28.7821 91.5205 29.7752C91.5205 31.2547 91.7926 32.3593 92.3368 33.089C92.8811 33.7984 93.5976 34.1531 94.4865 34.1531Z" fill="url(#paint11_linear_128_343)"/>
<path d="M67.876 37.5277C67.368 37.5277 66.9508 37.3959 66.6243 37.1324C66.3159 36.869 66.1163 36.5143 66.0256 36.0684C65.953 35.6225 66.0347 35.1259 66.2705 34.5787L73.2365 17.5232C73.5268 16.8341 73.8715 16.3376 74.2706 16.0336C74.6697 15.7093 75.1323 15.5471 75.6583 15.5471C76.1844 15.5471 76.647 15.7093 77.0461 16.0336C77.4452 16.3376 77.7808 16.8341 78.0529 17.5232L85.0734 34.5787C85.3092 35.1259 85.3908 35.6326 85.3183 36.0988C85.2638 36.5447 85.0824 36.8994 84.774 37.1628C84.4657 37.4061 84.0666 37.5277 83.5768 37.5277C82.96 37.5277 82.4792 37.3655 82.1346 37.0412C81.808 36.7169 81.5178 36.2103 81.2638 35.5211L79.6311 31.2953L81.3182 32.6026H69.9712L71.6583 31.2953L70.0528 35.5211C69.7807 36.2305 69.4905 36.7474 69.1821 37.0716C68.8918 37.3757 68.4565 37.5277 67.876 37.5277ZM75.6039 20.837L72.1209 30.1096L71.3862 28.9239H79.9033L79.1686 30.1096L75.6583 20.837H75.6039Z" fill="url(#paint12_linear_128_343)"/>
<defs>
<linearGradient id="paint0_linear_128_343" x1="7.24112" y1="42.6735" x2="28.7018" y2="13.5909" gradientUnits="userSpaceOnUse">
<stop offset="0.000999756" stop-color="#E4733D"/>
<stop offset="0.549072" stop-color="#819911"/>
<stop offset="0.988255" stop-color="#19715F"/>
</linearGradient>
<linearGradient id="paint1_linear_128_343" x1="6.08723" y1="5.59184" x2="7.90573" y2="21.2248" gradientUnits="userSpaceOnUse">
<stop offset="0.0759998" stop-color="#58AA23"/>
<stop offset="1" stop-color="#116927"/>
</linearGradient>
<linearGradient id="paint2_linear_128_343" x1="20.0346" y1="8.27195" x2="53.5636" y2="25.8916" gradientUnits="userSpaceOnUse">
<stop offset="0.35192" stop-color="#19715F"/>
<stop offset="0.830631" stop-color="#819911"/>
</linearGradient>
<linearGradient id="paint3_linear_128_343" x1="65.3998" y1="24.4244" x2="241.192" y2="24.4244" gradientUnits="userSpaceOnUse">
<stop stop-color="#EB7140"/>
<stop offset="0.447681" stop-color="#819911"/>
<stop offset="1" stop-color="#19715F"/>
</linearGradient>
<linearGradient id="paint4_linear_128_343" x1="65.3997" y1="24.4244" x2="241.192" y2="24.4244" gradientUnits="userSpaceOnUse">
<stop stop-color="#EB7140"/>
<stop offset="0.447681" stop-color="#819911"/>
<stop offset="1" stop-color="#19715F"/>
</linearGradient>
<linearGradient id="paint5_linear_128_343" x1="65.3995" y1="24.4245" x2="241.192" y2="24.4245" gradientUnits="userSpaceOnUse">
<stop stop-color="#EB7140"/>
<stop offset="0.447681" stop-color="#819911"/>
<stop offset="1" stop-color="#19715F"/>
</linearGradient>
<linearGradient id="paint6_linear_128_343" x1="65.3996" y1="24.4244" x2="241.192" y2="24.4244" gradientUnits="userSpaceOnUse">
<stop stop-color="#EB7140"/>
<stop offset="0.447681" stop-color="#819911"/>
<stop offset="1" stop-color="#19715F"/>
</linearGradient>
<linearGradient id="paint7_linear_128_343" x1="65.3999" y1="24.4247" x2="241.192" y2="24.4247" gradientUnits="userSpaceOnUse">
<stop stop-color="#EB7140"/>
<stop offset="0.447681" stop-color="#819911"/>
<stop offset="1" stop-color="#19715F"/>
</linearGradient>
<linearGradient id="paint8_linear_128_343" x1="65.3997" y1="24.4244" x2="241.192" y2="24.4244" gradientUnits="userSpaceOnUse">
<stop stop-color="#EB7140"/>
<stop offset="0.447681" stop-color="#819911"/>
<stop offset="1" stop-color="#19715F"/>
</linearGradient>
<linearGradient id="paint9_linear_128_343" x1="65.3997" y1="24.4244" x2="241.192" y2="24.4244" gradientUnits="userSpaceOnUse">
<stop stop-color="#EB7140"/>
<stop offset="0.447681" stop-color="#819911"/>
<stop offset="1" stop-color="#19715F"/>
</linearGradient>
<linearGradient id="paint10_linear_128_343" x1="65.3996" y1="24.4244" x2="241.192" y2="24.4244" gradientUnits="userSpaceOnUse">
<stop stop-color="#EB7140"/>
<stop offset="0.447681" stop-color="#819911"/>
<stop offset="1" stop-color="#19715F"/>
</linearGradient>
<linearGradient id="paint11_linear_128_343" x1="65.3998" y1="24.4244" x2="241.192" y2="24.4244" gradientUnits="userSpaceOnUse">
<stop stop-color="#EB7140"/>
<stop offset="0.447681" stop-color="#819911"/>
<stop offset="1" stop-color="#19715F"/>
</linearGradient>
<linearGradient id="paint12_linear_128_343" x1="65.3998" y1="24.4244" x2="241.192" y2="24.4244" gradientUnits="userSpaceOnUse">
<stop stop-color="#EB7140"/>
<stop offset="0.447681" stop-color="#819911"/>
<stop offset="1" stop-color="#19715F"/>
</linearGradient>
</defs>
</svg>
