<svg width="226" height="43" viewBox="0 0 226 43" fill="none" xmlns="http://www.w3.org/2000/svg">
<path d="M4.17279 38.2944C0.234403 32.1668 3.43528 23.6706 10.3386 22.3232C11.4892 22.0986 12.6505 22.082 13.7899 22.3065C14.4736 22.4412 14.7131 22.2042 14.8963 21.5451C16.7018 15.0477 20.7488 11.1489 26.9714 9.87521C32.8958 8.66257 39.7818 12.5403 42.2391 18.4467C42.5281 19.1414 42.8842 19.4549 43.5927 19.6283C48.7184 20.8831 52.132 25.7691 52.0382 31.6157C51.9562 36.7229 48.1813 41.318 43.1943 42.3425C42.6141 42.4617 42.0052 42.4512 41.4096 42.4515C31.6605 42.4567 21.9112 42.4172 12.1624 42.4732C8.83246 42.4923 6.25744 41.0773 4.17279 38.2944ZM35.2635 17.8989C36.0505 18.6346 36.3587 19.5052 35.8727 20.562C35.3799 21.6336 34.5543 22.0581 33.4695 21.8045C33.0135 21.6979 32.6879 21.8338 32.3386 22.1149C31.6532 22.6666 30.9402 23.1791 30.2402 23.7102C25.8984 27.0045 22.183 30.8128 20.8011 36.5906C20.5753 37.5343 19.9258 38.1699 18.9832 38.3324C17.9844 38.5046 17.1367 38.2191 16.5273 37.2973C16.3574 37.0403 16.1797 36.6436 15.9541 36.5974C14.2616 36.2506 13.2073 34.734 11.7117 34.0301C10.8808 33.6389 10.4259 32.8819 10.7256 31.8863C11.011 30.938 11.7428 30.6318 12.6089 30.8265C13.6567 31.0622 13.9097 31.8728 13.8025 32.9106C13.6867 34.0308 14.6081 34.2072 15.2402 34.6166C15.8075 34.9841 16.1872 34.7331 16.6761 34.246C18.2021 32.7256 17.8551 28.9842 15.822 27.18C13.7313 25.3246 10.8125 25.1411 8.41895 26.7834C6.31157 28.2294 5.15889 31.3703 5.80916 33.8947C6.60793 36.9957 8.7662 38.9204 11.586 38.9479C14.9857 38.9811 18.3863 38.921 21.7857 38.9662C22.754 38.9791 22.9583 38.5545 22.9807 37.6167C23.1056 32.3743 26.4794 28.1927 31.2762 27.2096C32.6664 26.9247 34.0713 26.6558 35.4176 26.2035C40.1351 24.6187 41.0243 21.0581 37.6323 17.1915C34.473 13.5902 30.5462 12.3551 26.1033 13.6856C21.567 15.0441 18.8931 18.4202 17.7913 23.2711C17.6452 23.9141 17.9008 24.3208 18.2904 24.7444C19.9463 26.5452 20.7222 28.7148 20.6434 31.2409C20.6313 31.6306 20.4966 32.0641 20.8026 32.5343C21.7363 31.0072 22.5407 29.529 23.572 28.2079C25.68 25.5073 28.2929 23.4606 30.9921 21.5184C31.5734 21.1001 31.9835 20.699 31.9712 19.8172C31.9436 17.8499 33.3888 16.963 35.2635 17.8989ZM34.628 19.6819C34.6154 19.1965 34.3898 18.9478 33.9295 19.0174C33.6452 19.0604 33.4809 19.273 33.4426 19.5756C33.4054 19.8687 33.4698 20.14 33.7397 20.2708C34.1673 20.478 34.4365 20.2617 34.628 19.6819ZM18.4658 36.5391C19.0517 36.4754 19.2756 36.1256 19.0479 35.5565C18.9091 35.2097 18.5418 35.1538 18.2797 35.3559C17.8132 35.7155 17.8145 36.1357 18.4658 36.5391Z" fill="url(#paint0_linear_82_277)"/>
<path d="M14.3861 7.64805C15.8152 11.5176 14.5849 14.8029 12.8004 18.0342C11.78 17.1641 11.232 15.7552 10.2608 11.7567C10.2702 12.9412 10.4496 14.1053 10.7307 15.2493C11.011 16.3897 11.3339 17.5182 11.648 18.6886C9.65933 18.2818 5.97756 13.7458 5.76936 10.1256C5.54903 6.29465 8.39218 0.898878 11.2264 0C11.1809 2.11123 12.5555 3.5634 13.3384 5.29481C13.6794 6.04894 14.0184 6.80409 14.3861 7.64805Z" fill="url(#paint1_linear_82_277)"/>
<path d="M52.9915 19.2581C52.81 18.6331 52.65 18.1017 52.5117 17.5639C52.3144 16.7974 51.995 16.2791 51.1666 16.0316C50.1573 15.7299 49.6598 14.7993 49.892 13.6907C50.0703 12.8399 49.8267 12.2716 49.3664 11.635C46.7222 7.97791 43.2878 5.55625 39.2078 4.12468C38.6798 3.93944 38.2044 3.83219 37.6395 4.26057C36.857 4.85393 35.9806 4.74292 35.3291 3.92994C34.9792 3.49344 34.6065 3.30064 34.0834 3.2845C30.4913 3.17369 27.0306 3.89867 23.6314 5.0769C22.9876 5.30005 22.8672 5.86245 22.6099 6.3858C22.0949 7.43366 21.2581 7.98806 20.1388 7.88718C19.0657 7.79047 18.3394 7.13061 18.0101 6.0461C17.6644 4.90763 17.9521 3.91714 18.7959 3.13206C19.7917 2.20565 21.3251 2.2933 22.1848 3.478C22.6402 4.10553 22.9973 4.07166 23.5839 3.86879C27.1228 2.64472 30.7305 1.88069 34.4769 2.19913C34.8724 2.23275 35.0731 2.05042 35.3235 1.77537C36.3078 0.694084 37.3993 0.769336 38.0963 2.01833C38.3756 2.51873 38.7113 2.76201 39.1955 2.91731C43.8044 4.39556 47.6267 7.11414 50.5796 11.1896C50.8675 11.587 51.1506 11.8037 51.69 11.7938C53.5074 11.7603 54.5222 13.4579 53.6486 15.1297C53.2688 15.8564 53.2969 16.4038 53.5585 17.1268C54.4086 19.4772 54.9125 21.9277 55.1859 24.4276C55.2466 24.9828 55.446 25.349 55.8563 25.7131C56.7951 26.5461 56.8869 27.7859 56.1666 28.671C55.522 29.4632 54.4084 29.552 53.6518 28.8716C52.8222 28.1256 52.6982 26.9853 53.5096 26.0196C54.1087 25.3066 54.0385 24.5572 53.9238 23.7836C53.7021 22.2892 53.4556 20.7963 52.9915 19.2581ZM19.7589 6.02775C20.3323 6.50176 20.823 6.32294 21.1836 5.74565C21.4612 5.3012 21.3972 4.83224 21.0093 4.45243C20.659 4.10943 20.2708 4.05384 19.8981 4.37509C19.4092 4.79645 19.181 5.29777 19.7589 6.02775Z" fill="url(#paint2_linear_82_277)"/>
<path d="M2.30238 16.2412C4.75621 14.9845 6.36939 15.2476 8.11121 16.9496C8.78288 17.6059 8.90062 18.3141 7.95698 19.1039C6.51224 20.3131 4.85996 20.7899 3.04104 19.9256C2.19721 19.5246 1.41608 18.983 0.474732 18.7851C-0.189051 18.6456 -0.0779061 18.1539 0.327077 17.7386C0.894092 17.1573 1.53322 16.6786 2.30238 16.2412Z" fill="#187329"/>
<path d="M55.177 30.8547C54.8285 33.1972 54.3925 35.4201 53.6461 37.5541C53.4377 38.1497 53.664 38.5072 53.9363 38.9582C54.5852 40.0328 54.4722 41.2624 53.7073 42.1577C53.0164 42.9663 51.8672 43.2277 50.9348 42.7884C49.9733 42.3353 49.3754 41.2317 49.5049 40.0601C49.6352 38.8802 50.3394 38.1884 51.3728 37.9676C52.1028 37.8117 52.4439 37.4077 52.6744 36.6951C53.2982 34.7668 53.7331 32.7962 53.9895 30.7781C54.0378 30.3979 54.1368 30.0376 54.544 29.9943C55.0379 29.9418 55.1752 30.3067 55.177 30.8547ZM51.2958 40.3605C51.3132 41.0188 51.6692 41.1938 52.1699 40.953C52.4891 40.7995 52.6712 40.4168 52.4075 40.0765C52.0325 39.5925 51.6513 39.7212 51.2958 40.3605Z" fill="#0E6720"/>
<path d="M39.3958 37.9999C39.1906 37.9999 39.0141 37.9447 38.8663 37.8343C38.7185 37.7146 38.5995 37.5305 38.5092 37.282L36.7237 32.1735C36.6499 31.9526 36.6252 31.7593 36.6499 31.5937C36.6827 31.4188 36.7607 31.2807 36.8838 31.1795C37.007 31.0782 37.1711 31.0276 37.3764 31.0276C37.557 31.0276 37.7047 31.0782 37.8197 31.1795C37.9346 31.2715 38.0331 31.451 38.1152 31.7179L39.6051 36.3155H39.3219L40.8611 31.6075C40.9268 31.405 41.013 31.2577 41.1197 31.1657C41.2346 31.0736 41.3824 31.0276 41.563 31.0276C41.7436 31.0276 41.8914 31.0782 42.0063 31.1795C42.1212 31.2715 42.2074 31.4142 42.2649 31.6075L43.7795 36.3155H43.5209L45.0231 31.6765C45.1052 31.428 45.2078 31.2577 45.331 31.1657C45.4623 31.0736 45.606 31.0276 45.7619 31.0276C45.959 31.0276 46.1108 31.0828 46.2176 31.1933C46.3243 31.3037 46.3858 31.4464 46.4023 31.6213C46.4187 31.787 46.3899 31.971 46.3161 32.1735L44.5429 37.282C44.4608 37.5213 44.3418 37.7008 44.1858 37.8204C44.038 37.9401 43.8615 37.9999 43.6563 37.9999C43.4511 37.9999 43.2705 37.9401 43.1145 37.8204C42.9668 37.7008 42.8518 37.5213 42.7697 37.282L41.1566 32.4911H41.8585L40.2824 37.2682C40.2003 37.5167 40.0854 37.7008 39.9376 37.8204C39.7898 37.9401 39.6092 37.9999 39.3958 37.9999Z" fill="white"/>
<path d="M28.7634 38C28.5172 38 28.3284 37.9263 28.197 37.7791C28.0657 37.6226 28 37.4017 28 37.1163V31.8974C28 31.6121 28.0657 31.3958 28.197 31.2485C28.3284 31.1012 28.5131 31.0276 28.7511 31.0276C28.9892 31.0276 29.1739 31.1012 29.3052 31.2485C29.4366 31.3958 29.5023 31.6121 29.5023 31.8974V32.8363L29.3668 32.4911C29.5474 32.0033 29.8265 31.6351 30.2041 31.3866C30.59 31.1289 31.025 31 31.5094 31C31.9937 31 32.3919 31.1012 32.7038 31.3037C33.0158 31.5062 33.2497 31.8146 33.4057 32.2288C33.5617 32.6338 33.6396 33.1492 33.6396 33.7751V37.1163C33.6396 37.4017 33.574 37.6226 33.4426 37.7791C33.3113 37.9263 33.1225 38 32.8762 38C32.6299 38 32.437 37.9263 32.2975 37.7791C32.1661 37.6226 32.1004 37.4017 32.1004 37.1163V33.858C32.1004 33.3333 32.0101 32.9513 31.8295 32.712C31.6571 32.4727 31.3862 32.353 31.0168 32.353C30.5653 32.353 30.2041 32.5141 29.9332 32.8363C29.6705 33.1492 29.5392 33.568 29.5392 34.0927V37.1163C29.5392 37.7054 29.2806 38 28.7634 38Z" fill="white"/>
<path d="M12.9291 32.2045C13.0003 32.4415 12.7885 32.6747 12.456 32.7254C12.1235 32.7761 11.7963 32.6251 11.7251 32.3882C11.6539 32.1512 11.8657 31.918 12.1982 31.8673C12.5307 31.8165 12.8579 31.9675 12.9291 32.2045Z" fill="white"/>
<path d="M37.4455 2.92251C37.5032 3.23484 37.1948 3.52139 36.7565 3.56253C36.3182 3.60367 35.9162 3.38383 35.8584 3.0715C35.8007 2.75917 36.1092 2.47263 36.5474 2.43149C36.9857 2.39034 37.3878 2.61018 37.4455 2.92251Z" fill="white"/>
<path d="M52.6492 13.9204C52.7203 14.1573 52.4816 14.3946 52.1158 14.4504C51.7501 14.5062 51.3959 14.3594 51.3247 14.1224C51.2535 13.8855 51.4923 13.6481 51.858 13.5923C52.2238 13.5365 52.578 13.6834 52.6492 13.9204Z" fill="white"/>
<path d="M55.7795 27.5162C55.8649 27.8006 55.6107 28.0804 55.2117 28.1413C54.8127 28.2022 54.42 28.021 54.3346 27.7367C54.2492 27.4523 54.5034 27.1725 54.9024 27.1116C55.3014 27.0507 55.6941 27.2319 55.7795 27.5162Z" fill="white"/>
<path d="M2.40039 17.9898C2.40039 17.9898 4.63697 17.9898 6.10819 17.9898C7.5794 17.9898 8.0039 17.551 8.55721 17.551C9.11051 17.551 9.18672 18.4286 8.55721 18.4286C7.9277 18.4286 2.40039 17.9898 2.40039 17.9898Z" fill="white"/>
<path d="M219.585 36.5004C217.88 36.5004 216.41 36.1231 215.175 35.3685C213.959 34.5895 213.018 33.5062 212.352 32.1187C211.705 30.7068 211.382 29.0515 211.382 27.1527C211.382 25.3026 211.695 23.6838 212.323 22.2962C212.95 20.8843 213.822 19.7889 214.94 19.0099C216.077 18.2066 217.361 17.8049 218.792 17.8049C219.831 17.8049 220.771 18.024 221.614 18.4622C222.457 18.876 223.183 19.4846 223.79 20.2879C224.398 21.0669 224.859 22.0285 225.172 23.1726C225.486 24.2924 225.643 25.546 225.643 26.9336C225.643 27.3961 225.525 27.7491 225.29 27.9925C225.055 28.2116 224.712 28.3212 224.261 28.3212H215.028V25.473H222.438L221.967 25.9842C221.967 24.9862 221.85 24.1585 221.614 23.5012C221.379 22.8196 221.036 22.3084 220.585 21.9676C220.154 21.6268 219.615 21.4564 218.968 21.4564C218.243 21.4564 217.625 21.6633 217.115 22.0771C216.606 22.491 216.214 23.0874 215.939 23.8664C215.665 24.6453 215.528 25.5826 215.528 26.678V26.9701C215.528 28.8202 215.871 30.1834 216.557 31.0598C217.263 31.9361 218.301 32.3743 219.674 32.3743C220.144 32.3743 220.683 32.3013 221.291 32.1552C221.899 32.0091 222.467 31.7779 222.996 31.4614C223.447 31.1936 223.849 31.1084 224.202 31.2058C224.555 31.2788 224.829 31.4736 225.025 31.7901C225.221 32.1065 225.329 32.4717 225.349 32.8855C225.388 33.2993 225.319 33.7132 225.143 34.127C224.967 34.5165 224.672 34.8451 224.261 35.1129C223.594 35.5754 222.84 35.9162 221.997 36.1353C221.173 36.3787 220.37 36.5004 219.585 36.5004Z" fill="#0C7264"/>
<path d="M203.143 36.5004C202.28 36.5004 201.388 36.4031 200.467 36.2083C199.565 36.0136 198.742 35.685 197.997 35.2224C197.605 34.979 197.321 34.6747 197.144 34.3096C196.987 33.9201 196.919 33.5306 196.938 33.1411C196.958 32.7516 197.056 32.3986 197.232 32.0822C197.428 31.7657 197.673 31.5588 197.967 31.4614C198.281 31.3397 198.624 31.3762 198.997 31.571C199.8 31.9848 200.535 32.2769 201.202 32.4473C201.868 32.6177 202.525 32.7029 203.172 32.7029C204.015 32.7029 204.623 32.5447 204.995 32.2282C205.387 31.8874 205.583 31.4492 205.583 30.9137C205.583 30.4268 205.456 30.0617 205.201 29.8183C204.946 29.5748 204.574 29.4044 204.084 29.3071L200.996 28.6133C199.781 28.3455 198.84 27.7978 198.173 26.9701C197.526 26.1181 197.203 25.0348 197.203 23.7203C197.203 22.5032 197.477 21.4564 198.026 20.58C198.575 19.6794 199.33 18.9977 200.29 18.5352C201.271 18.0484 202.378 17.8049 203.613 17.8049C204.495 17.8049 205.309 17.9023 206.054 18.097C206.799 18.2918 207.514 18.6083 208.2 19.0464C208.553 19.2655 208.798 19.5576 208.935 19.9228C209.092 20.2879 209.141 20.6652 209.082 21.0547C209.043 21.4442 208.926 21.7972 208.73 22.1137C208.534 22.4301 208.279 22.637 207.965 22.7344C207.671 22.8318 207.328 22.7831 206.936 22.5884C206.309 22.2232 205.73 21.9676 205.201 21.8215C204.672 21.6511 204.162 21.5659 203.672 21.5659C202.79 21.5659 202.153 21.7485 201.761 22.1137C201.369 22.4545 201.173 22.8926 201.173 23.4282C201.173 23.842 201.28 24.195 201.496 24.4871C201.731 24.7549 202.084 24.9375 202.555 25.0348L205.642 25.7286C206.916 25.9964 207.887 26.5319 208.553 27.3353C209.22 28.1142 209.553 29.1853 209.553 30.5486C209.553 32.3986 208.965 33.8592 207.789 34.9303C206.632 35.9771 205.083 36.5004 203.143 36.5004Z" fill="#0C7264"/>
<path d="M191.981 36.391C191.256 36.391 190.697 36.1354 190.305 35.6242C189.933 35.0886 189.746 34.3462 189.746 33.3968V20.9088C189.746 19.935 189.933 19.1926 190.305 18.6814C190.697 18.1458 191.256 17.878 191.981 17.878C192.687 17.878 193.226 18.1458 193.598 18.6814C193.99 19.1926 194.186 19.935 194.186 20.9088V33.3968C194.186 34.3462 194 35.0886 193.628 35.6242C193.255 36.1354 192.706 36.391 191.981 36.391ZM191.981 14.8838C191.158 14.8838 190.521 14.6526 190.07 14.1901C189.638 13.7032 189.423 13.0216 189.423 12.1452C189.423 11.2445 189.638 10.5629 190.07 10.1004C190.521 9.61355 191.158 9.37012 191.981 9.37012C192.804 9.37012 193.432 9.61355 193.863 10.1004C194.294 10.5629 194.51 11.2445 194.51 12.1452C194.51 13.0216 194.294 13.7032 193.863 14.1901C193.432 14.6526 192.804 14.8838 191.981 14.8838Z" fill="#0C7264"/>
<path d="M170.359 36.4275C169.771 36.4275 169.271 36.2571 168.86 35.9163C168.448 35.5512 168.115 34.9791 167.86 34.2001L163.714 21.4565C163.498 20.7749 163.43 20.1785 163.508 19.6673C163.587 19.1317 163.792 18.7057 164.126 18.3893C164.479 18.0485 164.959 17.8781 165.566 17.8781C166.076 17.8781 166.498 18.0363 166.831 18.3527C167.164 18.6449 167.448 19.2169 167.684 20.0689L170.918 30.7677H170.242L173.594 19.5942C173.751 19.01 173.976 18.584 174.27 18.3162C174.584 18.0241 174.986 17.8781 175.476 17.8781C175.966 17.8781 176.358 18.0241 176.652 18.3162C176.966 18.6083 177.211 19.0343 177.387 19.5942L180.68 30.7677H180.122L183.327 19.9229C183.562 19.1439 183.866 18.6083 184.238 18.3162C184.611 18.0241 185.013 17.8781 185.444 17.8781C185.993 17.8781 186.414 18.0485 186.708 18.3893C187.022 18.7301 187.198 19.1682 187.238 19.7038C187.296 20.2393 187.218 20.8236 187.002 21.4565L182.886 34.2001C182.651 34.9547 182.317 35.5146 181.886 35.8798C181.474 36.2449 180.975 36.4275 180.386 36.4275C179.818 36.4275 179.318 36.2449 178.887 35.8798C178.475 35.5146 178.142 34.9547 177.887 34.2001L174.358 22.8075H176.27L172.829 34.1636C172.594 34.9182 172.271 35.4903 171.859 35.8798C171.447 36.2449 170.948 36.4275 170.359 36.4275Z" fill="#0C7264"/>
<path d="M159.359 36.5005C158.007 36.5005 156.87 36.2205 155.948 35.6606C155.047 35.1008 154.37 34.2853 153.919 33.2142C153.488 32.1431 153.273 30.792 153.273 29.161V22.2963H152.038C151.489 22.2963 151.057 22.1137 150.744 21.7486C150.45 21.3834 150.303 20.8844 150.303 20.2515C150.303 19.5699 150.45 19.0586 150.744 18.7178C151.057 18.3527 151.489 18.1701 152.038 18.1701H153.273V15.395C153.273 14.47 153.469 13.7762 153.861 13.3137C154.253 12.8268 154.802 12.5834 155.507 12.5834C156.233 12.5834 156.782 12.8268 157.154 13.3137C157.526 13.7762 157.713 14.47 157.713 15.395V18.1701H160.506C161.055 18.1701 161.476 18.3527 161.771 18.7178C162.065 19.0586 162.212 19.5699 162.212 20.2515C162.212 20.8844 162.065 21.3834 161.771 21.7486C161.476 22.1137 161.055 22.2963 160.506 22.2963H157.713V28.9419C157.713 29.9644 157.899 30.7312 158.271 31.2424C158.663 31.7536 159.281 32.0092 160.124 32.0092C160.418 32.0092 160.692 31.9727 160.947 31.8996C161.202 31.8266 161.437 31.7779 161.653 31.7536C161.927 31.7292 162.153 31.8388 162.329 32.0822C162.506 32.3013 162.594 32.8003 162.594 33.5793C162.594 34.1635 162.515 34.6748 162.359 35.1129C162.202 35.5511 161.927 35.8676 161.535 36.0623C161.28 36.184 160.928 36.2814 160.477 36.3544C160.045 36.4518 159.673 36.5005 159.359 36.5005Z" fill="#0C7264"/>
<path d="M143.719 36.5004C142.014 36.5004 140.544 36.1231 139.309 35.3685C138.093 34.5895 137.152 33.5062 136.486 32.1187C135.839 30.7068 135.515 29.0515 135.515 27.1527C135.515 25.3026 135.829 23.6838 136.456 22.2962C137.084 20.8843 137.956 19.7889 139.073 19.0099C140.21 18.2066 141.494 17.8049 142.925 17.8049C143.964 17.8049 144.905 18.024 145.748 18.4622C146.591 18.876 147.316 19.4846 147.924 20.2879C148.532 21.0669 148.992 22.0285 149.306 23.1726C149.62 24.2924 149.777 25.546 149.777 26.9336C149.777 27.3961 149.659 27.7491 149.424 27.9925C149.189 28.2116 148.845 28.3212 148.395 28.3212H139.162V25.473H146.572L146.101 25.9842C146.101 24.9862 145.983 24.1585 145.748 23.5012C145.513 22.8196 145.17 22.3084 144.719 21.9676C144.288 21.6268 143.749 21.4564 143.102 21.4564C142.376 21.4564 141.759 21.6633 141.249 22.0771C140.74 22.491 140.348 23.0874 140.073 23.8664C139.799 24.6453 139.661 25.5826 139.661 26.678V26.9701C139.661 28.8202 140.004 30.1834 140.691 31.0598C141.396 31.9361 142.435 32.3743 143.807 32.3743C144.278 32.3743 144.817 32.3013 145.425 32.1552C146.032 32.0091 146.601 31.7779 147.13 31.4614C147.581 31.1936 147.983 31.1084 148.336 31.2058C148.689 31.2788 148.963 31.4736 149.159 31.7901C149.355 32.1065 149.463 32.4717 149.483 32.8855C149.522 33.2993 149.453 33.7132 149.277 34.127C149.1 34.5165 148.806 34.8451 148.395 35.1129C147.728 35.5754 146.973 35.9162 146.13 36.1353C145.307 36.3787 144.503 36.5004 143.719 36.5004Z" fill="#0C7264"/>
<path d="M120.968 36.4274C120.243 36.4274 119.684 36.184 119.292 35.6971C118.919 35.2103 118.733 34.5165 118.733 33.6158V20.6531C118.733 19.7524 118.919 19.0708 119.292 18.6083C119.684 18.1214 120.223 17.878 120.909 17.878C121.615 17.878 122.154 18.1214 122.526 18.6083C122.899 19.0708 123.085 19.7524 123.085 20.6531V22.7344L122.762 21.5294C123.212 20.3366 123.879 19.4237 124.761 18.7908C125.663 18.1336 126.682 17.8049 127.819 17.8049C128.976 17.8049 129.927 18.0849 130.671 18.6448C131.416 19.1803 131.975 20.008 132.347 21.1278C132.72 22.2232 132.906 23.6229 132.906 25.327V33.6158C132.906 34.5165 132.71 35.2103 132.318 35.6971C131.946 36.184 131.397 36.4274 130.671 36.4274C129.966 36.4274 129.417 36.184 129.025 35.6971C128.652 35.2103 128.466 34.5165 128.466 33.6158V25.5826C128.466 24.3411 128.28 23.4525 127.907 22.917C127.555 22.3571 127.006 22.0771 126.261 22.0771C125.32 22.0771 124.565 22.4423 123.997 23.1726C123.448 23.9029 123.173 24.8766 123.173 26.0938V33.6158C123.173 35.4902 122.438 36.4274 120.968 36.4274Z" fill="#0C7264"/>
<path d="M103.021 43.0001C102.296 43.0001 101.737 42.7566 101.345 42.2698C100.972 41.8072 100.786 41.1135 100.786 40.1884V20.6531C100.786 19.7524 100.972 19.0708 101.345 18.6083C101.737 18.1214 102.276 17.878 102.962 17.878C103.687 17.878 104.236 18.1214 104.609 18.6083C104.981 19.0708 105.167 19.7524 105.167 20.6531V23.1361L104.844 21.712C105.138 20.5435 105.726 19.6063 106.608 18.9004C107.51 18.1701 108.539 17.8049 109.696 17.8049C110.95 17.8049 112.048 18.1823 112.989 18.9369C113.95 19.6915 114.695 20.7626 115.224 22.1502C115.753 23.5377 116.018 25.1931 116.018 27.1162C116.018 29.0393 115.753 30.7068 115.224 32.1187C114.695 33.5306 113.959 34.6139 113.018 35.3685C112.077 36.1231 110.97 36.5004 109.696 36.5004C108.559 36.5004 107.549 36.1596 106.667 35.478C105.785 34.7721 105.187 33.8592 104.873 32.7394H105.226V40.1884C105.226 41.1135 105.03 41.8072 104.638 42.2698C104.266 42.7566 103.727 43.0001 103.021 43.0001ZM108.373 32.3743C109 32.3743 109.549 32.1795 110.019 31.7901C110.509 31.4006 110.882 30.8285 111.137 30.0739C111.411 29.2949 111.548 28.309 111.548 27.1162C111.548 25.3391 111.254 24.0368 110.666 23.2091C110.078 22.3571 109.313 21.9311 108.373 21.9311C107.745 21.9311 107.187 22.1137 106.696 22.4788C106.226 22.844 105.854 23.416 105.579 24.195C105.305 24.9496 105.167 25.9234 105.167 27.1162C105.167 28.8932 105.461 30.2199 106.05 31.0963C106.638 31.9483 107.412 32.3743 108.373 32.3743Z" fill="#0C7264"/>
<path d="M85.0739 43.0001C84.3485 43.0001 83.7899 42.7566 83.3978 42.2698C83.0253 41.8072 82.8391 41.1135 82.8391 40.1884V20.6531C82.8391 19.7524 83.0253 19.0708 83.3978 18.6083C83.7899 18.1214 84.3289 17.878 85.0151 17.878C85.7404 17.878 86.2893 18.1214 86.6617 18.6083C87.0342 19.0708 87.2204 19.7524 87.2204 20.6531V23.1361L86.8969 21.712C87.191 20.5435 87.7791 19.6063 88.6612 18.9004C89.563 18.1701 90.5921 17.8049 91.7487 17.8049C93.0033 17.8049 94.1011 18.1823 95.042 18.9369C96.0026 19.6915 96.7475 20.7626 97.2768 22.1502C97.8061 23.5377 98.0707 25.1931 98.0707 27.1162C98.0707 29.0393 97.8061 30.7068 97.2768 32.1187C96.7475 33.5306 96.0124 34.6139 95.0714 35.3685C94.1305 36.1231 93.0229 36.5004 91.7487 36.5004C90.6117 36.5004 89.6022 36.1596 88.72 35.478C87.8379 34.7721 87.24 33.8592 86.9264 32.7394H87.2792V40.1884C87.2792 41.1135 87.0832 41.8072 86.6911 42.2698C86.3187 42.7566 85.7796 43.0001 85.0739 43.0001ZM90.4255 32.3743C91.0528 32.3743 91.6017 32.1795 92.0722 31.7901C92.5622 31.4006 92.9347 30.8285 93.1895 30.0739C93.464 29.2949 93.6012 28.309 93.6012 27.1162C93.6012 25.3391 93.3071 24.0368 92.7191 23.2091C92.131 22.3571 91.3664 21.9311 90.4255 21.9311C89.7982 21.9311 89.2395 22.1137 88.7494 22.4788C88.279 22.844 87.9065 23.416 87.6321 24.195C87.3576 24.9496 87.2204 25.9234 87.2204 27.1162C87.2204 28.8932 87.5144 30.2199 88.1025 31.0963C88.6906 31.9483 89.4649 32.3743 90.4255 32.3743Z" fill="#0C7264"/>
<path d="M61.6698 36.4273C61.1209 36.4273 60.67 36.2691 60.3172 35.9526C59.9839 35.6362 59.7683 35.2102 59.6703 34.6746C59.5918 34.1391 59.6801 33.5427 59.9349 32.8854L67.4625 12.4007C67.7761 11.573 68.1486 10.9766 68.5798 10.6115C69.0111 10.222 69.511 10.0272 70.0795 10.0272C70.648 10.0272 71.1478 10.222 71.5791 10.6115C72.0104 10.9766 72.373 11.573 72.6671 12.4007L80.2535 32.8854C80.5083 33.5427 80.5965 34.1513 80.5181 34.7111C80.4593 35.2467 80.2633 35.6727 79.93 35.9892C79.5968 36.2813 79.1655 36.4273 78.6362 36.4273C77.9697 36.4273 77.4502 36.2326 77.0778 35.8431C76.7249 35.4536 76.4113 34.845 76.1368 34.0174L74.3725 28.9418L76.1956 30.512H63.9339L65.757 28.9418L64.0221 34.0174C63.7281 34.8694 63.4144 35.4901 63.0812 35.8796C62.7675 36.2448 62.2971 36.4273 61.6698 36.4273ZM70.0207 16.3808L66.2569 27.5177L65.463 26.0937H74.6666L73.8727 27.5177L70.0795 16.3808H70.0207Z" fill="#0C7264"/>
<defs>
<linearGradient id="paint0_linear_82_277" x1="31.2556" y1="20.061" x2="29.2019" y2="26.3047" gradientUnits="userSpaceOnUse">
<stop offset="0.205" stop-color="#116927"/>
</linearGradient>
<linearGradient id="paint1_linear_82_277" x1="6.15671" y1="1.7551" x2="8.3368" y2="18.9482" gradientUnits="userSpaceOnUse">
<stop offset="0.0759998" stop-color="#58AA23"/>
<stop offset="1" stop-color="#116927"/>
</linearGradient>
<linearGradient id="paint2_linear_82_277" x1="37.2548" y1="1.01892" x2="37.2548" y2="29.3289" gradientUnits="userSpaceOnUse">
<stop stop-color="#6AB327"/>
<stop offset="1" stop-color="#116927"/>
</linearGradient>
</defs>
</svg>
