<svg width="232" height="43" viewBox="0 0 232 43" fill="none" xmlns="http://www.w3.org/2000/svg">
<path d="M4.17222 38.2944C0.234021 32.1668 3.43475 23.6706 10.3377 22.3232C11.4882 22.0986 12.6495 22.082 13.7889 22.3065C14.4726 22.4412 14.7121 22.2042 14.8952 21.5451C16.7007 15.0477 20.7474 11.1489 26.9697 9.87521C32.8938 8.66257 39.7796 12.5403 42.2367 18.4467C42.5257 19.1414 42.8818 19.4549 43.5902 19.6283C48.7157 20.8831 52.1292 25.7691 52.0353 31.6157C51.9534 36.7229 48.1786 41.318 43.1919 42.3425C42.6117 42.4617 42.0029 42.4512 41.4073 42.4515C31.6586 42.4567 21.9098 42.4172 12.1614 42.4732C8.83166 42.4923 6.25677 41.0773 4.17222 38.2944ZM35.2614 17.8989C36.0484 18.6346 36.3566 19.5052 35.8706 20.562C35.3778 21.6336 34.5523 22.0581 33.4676 21.8045C33.0116 21.6979 32.6859 21.8338 32.3367 22.1149C31.6513 22.6666 30.9383 23.1791 30.2384 23.7102C25.8968 27.0045 22.1816 30.8128 20.7997 36.5906C20.574 37.5343 19.9245 38.1699 18.982 38.3324C17.9831 38.5046 17.1355 38.2191 16.5261 37.2973C16.3563 37.0403 16.1786 36.6436 15.9529 36.5974C14.2606 36.2506 13.2063 34.734 11.7108 34.0301C10.8799 33.6389 10.4251 32.8819 10.7247 31.8863C11.0101 30.938 11.7419 30.6318 12.6079 30.8265C13.6557 31.0622 13.9087 31.8728 13.8014 32.9106C13.6857 34.0308 14.6071 34.2072 15.2391 34.6166C15.8064 34.9841 16.1861 34.7331 16.6749 34.246C18.2008 32.7256 17.8538 28.9842 15.8209 27.18C13.7303 25.3246 10.8116 25.1411 8.41818 26.7834C6.3109 28.2294 5.15827 31.3703 5.80851 33.8947C6.60724 36.9957 8.76541 38.9204 11.5851 38.9479C14.9846 38.9811 18.385 38.921 21.7843 38.9662C22.7526 38.9791 22.9568 38.5545 22.9792 37.6167C23.1042 32.3743 26.4778 28.1927 31.2743 27.2096C32.6645 26.9247 34.0693 26.6558 35.4155 26.2035C40.1328 24.6187 41.022 21.0581 37.6302 17.1915C34.471 13.5902 30.5444 12.3551 26.1017 13.6856C21.5656 15.0441 18.8919 18.4202 17.79 23.2711C17.644 23.9141 17.8996 24.3208 18.2891 24.7444C19.945 26.5452 20.7208 28.7148 20.6421 31.2409C20.6299 31.6306 20.4953 32.0641 20.8013 32.5343C21.7349 31.0072 22.5393 29.529 23.5705 28.2079C25.6784 25.5073 28.2912 23.4606 30.9903 21.5184C31.5716 21.1001 31.9817 20.699 31.9693 19.8172C31.9417 17.8499 33.3868 16.963 35.2614 17.8989ZM34.626 19.6819C34.6133 19.1965 34.3878 18.9478 33.9276 19.0174C33.6432 19.0604 33.479 19.273 33.4406 19.5756C33.4035 19.8687 33.4678 20.14 33.7377 20.2708C34.1653 20.478 34.4345 20.2617 34.626 19.6819ZM18.4645 36.5391C19.0504 36.4754 19.2744 36.1256 19.0466 35.5565C18.9078 35.2097 18.5406 35.1538 18.2785 35.3559C17.8119 35.7155 17.8132 36.1357 18.4645 36.5391Z" fill="url(#paint0_linear_128_343)"/>
<path d="M14.3858 7.64805C15.8148 11.5176 14.5846 14.8029 12.8002 18.0342C11.7798 17.1641 11.2319 15.7552 10.2608 11.7567C10.2702 12.9412 10.4495 14.1053 10.7306 15.2493C11.0108 16.3897 11.3338 17.5182 11.6478 18.6886C9.65926 18.2818 5.97767 13.7458 5.76948 10.1256C5.54917 6.29465 8.39218 0.898878 11.2263 0C11.1807 2.11123 12.5553 3.5634 13.3382 5.29481C13.6791 6.04894 14.0181 6.80409 14.3858 7.64805Z" fill="url(#paint1_linear_128_343)"/>
<path d="M52.9891 19.258C52.8076 18.633 52.6477 18.1016 52.5093 17.5638C52.312 16.7973 51.9927 16.279 51.1643 16.0314C50.1551 15.7298 49.6575 14.7992 49.8898 13.6906C50.068 12.8398 49.8245 12.2715 49.3642 11.6349C46.7201 7.97779 43.2858 5.55613 39.206 4.12456C38.6781 3.93932 38.2027 3.83207 37.6378 4.26045C36.8553 4.85381 35.979 4.7428 35.3275 3.92982C34.9777 3.49332 34.605 3.30052 34.0819 3.28438C30.49 3.17357 27.0294 3.89855 23.6304 5.07677C22.9866 5.29993 22.8662 5.86232 22.609 6.38568C22.094 7.43354 21.2572 7.98793 20.138 7.88706C19.0649 7.79035 18.3386 7.13048 18.0093 6.04598C17.6636 4.90751 17.9513 3.91702 18.7951 3.13194C19.7909 2.20553 21.3242 2.29318 22.1839 3.47787C22.6393 4.10541 22.9963 4.07154 23.5829 3.86866C27.1216 2.6446 30.7292 1.88056 34.4754 2.19901C34.8708 2.23263 35.0716 2.05029 35.3219 1.77525C36.3062 0.693962 37.3977 0.769214 38.0946 2.01821C38.3739 2.51861 38.7096 2.76188 39.1938 2.91719C43.8024 4.39544 47.6246 7.11402 50.5773 11.1894C50.8652 11.5868 51.1482 11.8036 51.6877 11.7937C53.505 11.7601 54.5197 13.4577 53.6461 15.1295C53.2664 15.8563 53.2945 16.4037 53.556 17.1267C54.4062 19.4771 54.91 21.9275 55.1834 24.4275C55.2441 24.9826 55.4435 25.3488 55.8538 25.7129C56.7925 26.546 56.8843 27.7858 56.164 28.6709C55.5195 29.4631 54.406 29.5519 53.6493 28.8715C52.8198 28.1255 52.6959 26.9852 53.5072 26.0195C54.1062 25.3065 54.036 24.5571 53.9213 23.7834C53.6997 22.2891 53.4532 20.7961 52.9891 19.258ZM19.7581 6.02763C20.3314 6.50164 20.8221 6.32281 21.1827 5.74552C21.4603 5.30107 21.3963 4.83212 21.0084 4.45231C20.6582 4.10931 20.27 4.05371 19.8973 4.37497C19.4084 4.79632 19.1802 5.29765 19.7581 6.02763Z" fill="url(#paint2_linear_128_343)"/>
<path d="M2.30227 16.2412C4.75598 14.9845 6.36909 15.2476 8.11082 16.9496C8.78246 17.6059 8.9002 18.3141 7.9566 19.1039C6.51193 20.3131 4.85973 20.7899 3.04089 19.9256C2.19711 19.5246 1.41602 18.983 0.474709 18.7851C-0.189042 18.6456 -0.0779023 18.1539 0.327061 17.7386C0.894049 17.1573 1.53315 16.6786 2.30227 16.2412Z" fill="#187329"/>
<path d="M55.1744 30.8547C54.826 33.1972 54.39 35.4201 53.6435 37.5541C53.4352 38.1497 53.6615 38.5072 53.9338 38.9582C54.5826 40.0328 54.4697 41.2624 53.7047 42.1577C53.0139 42.9663 51.8647 43.2277 50.9324 42.7884C49.971 42.3353 49.3731 41.2317 49.5025 40.0601C49.6329 38.8802 50.337 38.1884 51.3704 37.9676C52.1003 37.8117 52.4414 37.4077 52.6719 36.6951C53.2957 34.7668 53.7306 32.7962 53.9869 30.7781C54.0352 30.3979 54.1343 30.0376 54.5415 29.9943C55.0354 29.9418 55.1726 30.3067 55.1744 30.8547ZM51.2933 40.3605C51.3108 41.0188 51.6668 41.1938 52.1674 40.953C52.4866 40.7995 52.6687 40.4168 52.405 40.0765C52.0301 39.5925 51.6488 39.7212 51.2933 40.3605Z" fill="#E5733D"/>
<path d="M39.3938 37.9997C39.1886 37.9997 39.0121 37.9445 38.8644 37.834C38.7166 37.7144 38.5976 37.5303 38.5073 37.2817L36.7219 32.1733C36.648 31.9524 36.6234 31.7591 36.648 31.5934C36.6809 31.4185 36.7588 31.2805 36.882 31.1792C37.0051 31.078 37.1693 31.0273 37.3745 31.0273C37.5551 31.0273 37.7028 31.078 37.8178 31.1792C37.9327 31.2713 38.0312 31.4507 38.1133 31.7177L39.6032 36.3153H39.32L40.8591 31.6072C40.9248 31.4047 41.011 31.2575 41.1177 31.1654C41.2326 31.0734 41.3803 31.0273 41.5609 31.0273C41.7415 31.0273 41.8893 31.078 42.0042 31.1792C42.1191 31.2713 42.2053 31.4139 42.2628 31.6072L43.7773 36.3153H43.5187L45.0209 31.6763C45.103 31.4277 45.2056 31.2575 45.3287 31.1654C45.4601 31.0734 45.6037 31.0273 45.7597 31.0273C45.9567 31.0273 46.1086 31.0826 46.2153 31.193C46.322 31.3035 46.3835 31.4461 46.4 31.621C46.4164 31.7867 46.3876 31.9708 46.3138 32.1733L44.5407 37.2817C44.4586 37.5211 44.3396 37.7005 44.1836 37.8202C44.0359 37.9399 43.8594 37.9997 43.6542 37.9997C43.4489 37.9997 43.2683 37.9399 43.1124 37.8202C42.9646 37.7005 42.8497 37.5211 42.7676 37.2817L41.1546 32.4908H41.8564L40.2804 37.2679C40.1983 37.5165 40.0834 37.7005 39.9356 37.8202C39.7879 37.9399 39.6073 37.9997 39.3938 37.9997Z" fill="white"/>
<path d="M28.7619 38.0002C28.5157 38.0002 28.3269 37.9266 28.1955 37.7793C28.0642 37.6228 27.9985 37.4019 27.9985 37.1166V31.8977C27.9985 31.6123 28.0642 31.396 28.1955 31.2488C28.3269 31.1015 28.5116 31.0279 28.7496 31.0279C28.9877 31.0279 29.1724 31.1015 29.3037 31.2488C29.4351 31.396 29.5007 31.6123 29.5007 31.8977V32.8365L29.3653 32.4914C29.5459 32.0035 29.825 31.6353 30.2026 31.3868C30.5884 31.1291 31.0234 31.0002 31.5078 31.0002C31.9921 31.0002 32.3902 31.1015 32.7021 31.304C33.014 31.5065 33.248 31.8148 33.404 32.229C33.5599 32.634 33.6379 33.1495 33.6379 33.7754V37.1166C33.6379 37.4019 33.5722 37.6228 33.4409 37.7793C33.3096 37.9266 33.1208 38.0002 32.8745 38.0002C32.6282 38.0002 32.4353 37.9266 32.2958 37.7793C32.1644 37.6228 32.0988 37.4019 32.0988 37.1166V33.8582C32.0988 33.3336 32.0085 32.9516 31.8279 32.7123C31.6555 32.473 31.3846 32.3533 31.0152 32.3533C30.5638 32.3533 30.2026 32.5144 29.9317 32.8365C29.669 33.1495 29.5377 33.5683 29.5377 34.0929V37.1166C29.5377 37.7057 29.2791 38.0002 28.7619 38.0002Z" fill="white"/>
<path d="M12.9292 32.2044C13.0003 32.4413 12.7885 32.6746 12.4561 32.7253C12.1236 32.776 11.7964 32.625 11.7252 32.3881C11.654 32.1511 11.8658 31.9179 12.1983 31.8671C12.5308 31.8164 12.858 31.9674 12.9292 32.2044Z" fill="white"/>
<path d="M37.4433 2.92215C37.5011 3.23448 37.1926 3.52102 36.7544 3.56217C36.3161 3.60331 35.9141 3.38347 35.8564 3.07114C35.7986 2.75881 36.1071 2.47226 36.5453 2.43112C36.9836 2.38998 37.3856 2.60982 37.4433 2.92215Z" fill="white"/>
<path d="M52.6468 13.9204C52.718 14.1573 52.4792 14.3946 52.1134 14.4504C51.7477 14.5062 51.3935 14.3594 51.3224 14.1224C51.2512 13.8855 51.49 13.6481 51.8557 13.5923C52.2214 13.5365 52.5756 13.6834 52.6468 13.9204Z" fill="white"/>
<path d="M55.7771 27.5161C55.8625 27.8005 55.6083 28.0803 55.2093 28.1412C54.8103 28.2021 54.4177 28.0209 54.3323 27.7365C54.2468 27.4522 54.501 27.1723 54.9 27.1115C55.299 27.0506 55.6917 27.2318 55.7771 27.5161Z" fill="white"/>
<path d="M2.40015 17.9899C2.40015 17.9899 4.63662 17.9899 6.10777 17.9899C7.57891 17.9899 8.00339 17.5512 8.55667 17.5512C9.10994 17.5512 9.18615 18.4287 8.55667 18.4287C7.92719 18.4287 2.40015 17.9899 2.40015 17.9899Z" fill="white"/>
<path d="M226.035 30.0885C224.456 30.0885 223.096 29.7743 221.953 29.146C220.828 28.4974 219.957 27.5955 219.341 26.4402C218.742 25.2647 218.443 23.8865 218.443 22.3056C218.443 20.7652 218.733 19.4174 219.313 18.2621C219.894 17.0866 220.701 16.1745 221.735 15.526C222.787 14.8571 223.976 14.5227 225.3 14.5227C226.261 14.5227 227.132 14.7051 227.912 15.0699C228.692 15.4145 229.363 15.9212 229.926 16.59C230.488 17.2386 230.914 18.0392 231.205 18.9918C231.495 19.9241 231.64 20.9679 231.64 22.1232C231.64 22.5083 231.531 22.8021 231.314 23.0048C231.096 23.1872 230.778 23.2784 230.361 23.2784H221.817V20.9071H228.674L228.239 21.3327C228.239 20.5017 228.13 19.8126 227.912 19.2654C227.695 18.6979 227.377 18.2723 226.96 17.9885C226.561 17.7048 226.062 17.5629 225.463 17.5629C224.792 17.5629 224.221 17.7352 223.749 18.0797C223.277 18.4243 222.914 18.9208 222.66 19.5694C222.406 20.218 222.28 20.9983 222.28 21.9104V22.1536C222.28 23.6939 222.597 24.8289 223.232 25.5586C223.885 26.2882 224.846 26.653 226.116 26.653C226.552 26.653 227.051 26.5922 227.613 26.4706C228.175 26.349 228.701 26.1565 229.191 25.893C229.608 25.6701 229.98 25.5991 230.307 25.6802C230.633 25.741 230.887 25.9031 231.069 26.1666C231.25 26.4301 231.35 26.7341 231.368 27.0787C231.404 27.4232 231.341 27.7678 231.178 28.1123C231.014 28.4366 230.742 28.7102 230.361 28.9332C229.744 29.3183 229.046 29.602 228.266 29.7844C227.504 29.9871 226.76 30.0885 226.035 30.0885Z" fill="url(#paint3_linear_128_343)"/>
<path d="M210.818 30.0885C210.02 30.0885 209.195 30.0074 208.342 29.8452C207.508 29.6831 206.746 29.4095 206.056 29.0244C205.694 28.8217 205.431 28.5684 205.267 28.2643C205.122 27.9401 205.059 27.6158 205.077 27.2915C205.095 26.9672 205.186 26.6733 205.349 26.4098C205.53 26.1464 205.757 25.9741 206.029 25.893C206.32 25.7917 206.637 25.8221 206.982 25.9842C207.725 26.3288 208.406 26.572 209.022 26.7139C209.639 26.8557 210.247 26.9267 210.846 26.9267C211.626 26.9267 212.188 26.7949 212.533 26.5314C212.896 26.2477 213.077 25.8829 213.077 25.437C213.077 25.0316 212.959 24.7276 212.723 24.5249C212.487 24.3222 212.143 24.1804 211.689 24.0993L208.832 23.5217C207.707 23.2987 206.837 22.8427 206.22 22.1536C205.621 21.4442 205.322 20.5423 205.322 19.4478C205.322 18.4344 205.576 17.5629 206.084 16.8332C206.592 16.0833 207.29 15.5158 208.179 15.1307C209.086 14.7254 210.111 14.5227 211.254 14.5227C212.07 14.5227 212.823 14.6038 213.512 14.7659C214.202 14.9281 214.864 15.1915 215.499 15.5564C215.825 15.7388 216.052 15.982 216.179 16.286C216.324 16.59 216.369 16.9042 216.315 17.2285C216.279 17.5528 216.17 17.8466 215.989 18.1101C215.807 18.3736 215.571 18.5459 215.281 18.627C215.009 18.708 214.691 18.6675 214.329 18.5054C213.748 18.2013 213.213 17.9885 212.723 17.8669C212.233 17.725 211.762 17.6541 211.308 17.6541C210.492 17.6541 209.902 17.8061 209.539 18.1101C209.177 18.3939 208.995 18.7587 208.995 19.2046C208.995 19.5491 209.095 19.843 209.295 20.0862C209.512 20.3092 209.839 20.4612 210.274 20.5423L213.131 21.1199C214.311 21.3429 215.208 21.7888 215.825 22.4576C216.442 23.1062 216.75 23.998 216.75 25.133C216.75 26.6733 216.206 27.8894 215.118 28.7812C214.047 29.6527 212.614 30.0885 210.818 30.0885Z" fill="url(#paint4_linear_128_343)"/>
<path d="M200.489 29.9974C199.818 29.9974 199.301 29.7846 198.938 29.3589C198.594 28.913 198.421 28.2949 198.421 27.5044V17.107C198.421 16.2963 198.594 15.6781 198.938 15.2525C199.301 14.8066 199.818 14.5836 200.489 14.5836C201.142 14.5836 201.641 14.8066 201.986 15.2525C202.349 15.6781 202.53 16.2963 202.53 17.107V27.5044C202.53 28.2949 202.358 28.913 202.013 29.3589C201.669 29.7846 201.161 29.9974 200.489 29.9974ZM200.489 12.0907C199.728 12.0907 199.138 11.8981 198.721 11.513C198.322 11.1077 198.122 10.5402 198.122 9.81054C198.122 9.06063 198.322 8.49313 198.721 8.10804C199.138 7.70268 199.728 7.5 200.489 7.5C201.251 7.5 201.832 7.70268 202.231 8.10804C202.63 8.49313 202.83 9.06063 202.83 9.81054C202.83 10.5402 202.63 11.1077 202.231 11.513C201.832 11.8981 201.251 12.0907 200.489 12.0907Z" fill="url(#paint5_linear_128_343)"/>
<path d="M174.122 30.0277C173.542 30.0277 173.07 29.8757 172.707 29.5716C172.344 29.2474 172.054 28.7609 171.837 28.1123L166.34 10.8441C166.104 10.0739 166.149 9.4152 166.476 8.86797C166.821 8.32074 167.41 8.04712 168.245 8.04712C168.825 8.04712 169.27 8.19913 169.578 8.50315C169.905 8.80717 170.168 9.28346 170.367 9.93204L174.857 24.8593H173.687L178.422 9.96244C178.639 9.31386 178.902 8.83757 179.211 8.53355C179.537 8.20926 179.964 8.04712 180.49 8.04712C180.998 8.04712 181.406 8.20926 181.714 8.53355C182.023 8.83757 182.286 9.324 182.503 9.99284L187.02 24.8593H186.013L190.585 9.93204C190.766 9.30373 191.02 8.83757 191.347 8.53355C191.673 8.20926 192.118 8.04712 192.68 8.04712C193.388 8.04712 193.905 8.32074 194.231 8.86797C194.558 9.4152 194.594 10.0739 194.34 10.8441L188.789 28.1427C188.589 28.7711 188.317 29.2474 187.973 29.5716C187.628 29.8757 187.156 30.0277 186.558 30.0277C185.977 30.0277 185.515 29.8757 185.17 29.5716C184.825 29.2474 184.544 28.7609 184.326 28.1123L180.027 14.5227H180.68L176.326 28.1427C176.109 28.7711 175.827 29.2474 175.483 29.5716C175.156 29.8757 174.703 30.0277 174.122 30.0277Z" fill="url(#paint6_linear_128_343)"/>
<path d="M162.223 30.0888C160.971 30.0888 159.919 29.8557 159.067 29.3895C158.232 28.9234 157.606 28.2444 157.189 27.3526C156.79 26.4608 156.59 25.3359 156.59 23.978V18.2624H155.448C154.94 18.2624 154.541 18.1104 154.25 17.8064C153.978 17.5024 153.842 17.0869 153.842 16.5599C153.842 15.9924 153.978 15.5668 154.25 15.2831C154.541 14.979 154.94 14.827 155.448 14.827H156.59V12.5165C156.59 11.7463 156.772 11.1687 157.135 10.7836C157.498 10.3782 158.005 10.1755 158.659 10.1755C159.33 10.1755 159.838 10.3782 160.182 10.7836C160.527 11.1687 160.699 11.7463 160.699 12.5165V14.827H163.284C163.792 14.827 164.182 14.979 164.454 15.2831C164.727 15.5668 164.863 15.9924 164.863 16.5599C164.863 17.0869 164.727 17.5024 164.454 17.8064C164.182 18.1104 163.792 18.2624 163.284 18.2624H160.699V23.7956C160.699 24.6468 160.872 25.2853 161.216 25.7109C161.579 26.1365 162.151 26.3493 162.931 26.3493C163.203 26.3493 163.457 26.3189 163.693 26.2581C163.928 26.1973 164.146 26.1568 164.346 26.1365C164.6 26.1162 164.808 26.2075 164.971 26.4101C165.135 26.5925 165.216 27.008 165.216 27.6566C165.216 28.143 165.144 28.5687 164.999 28.9335C164.854 29.2983 164.6 29.5618 164.237 29.7239C164.001 29.8253 163.674 29.9063 163.257 29.9671C162.858 30.0482 162.513 30.0888 162.223 30.0888Z" fill="url(#paint7_linear_128_343)"/>
<path d="M147.749 30.0885C146.171 30.0885 144.811 29.7743 143.668 29.146C142.543 28.4974 141.672 27.5955 141.056 26.4402C140.457 25.2647 140.158 23.8865 140.158 22.3056C140.158 20.7652 140.448 19.4174 141.028 18.2621C141.609 17.0866 142.416 16.1745 143.45 15.526C144.502 14.8571 145.691 14.5227 147.015 14.5227C147.976 14.5227 148.847 14.7051 149.627 15.0699C150.407 15.4145 151.078 15.9212 151.641 16.59C152.203 17.2386 152.629 18.0392 152.92 18.9918C153.21 19.9241 153.355 20.9679 153.355 22.1232C153.355 22.5083 153.246 22.8021 153.028 23.0048C152.811 23.1872 152.493 23.2784 152.076 23.2784H143.532V20.9071H150.389L149.954 21.3327C149.954 20.5017 149.845 19.8126 149.627 19.2654C149.409 18.6979 149.092 18.2723 148.675 17.9885C148.276 17.7048 147.777 17.5629 147.178 17.5629C146.507 17.5629 145.935 17.7352 145.464 18.0797C144.992 18.4243 144.629 18.9208 144.375 19.5694C144.121 20.218 143.994 20.9983 143.994 21.9104V22.1536C143.994 23.6939 144.312 24.8289 144.947 25.5586C145.6 26.2882 146.561 26.653 147.831 26.653C148.266 26.653 148.765 26.5922 149.328 26.4706C149.89 26.349 150.416 26.1565 150.906 25.893C151.323 25.6701 151.695 25.5991 152.022 25.6802C152.348 25.741 152.602 25.9031 152.784 26.1666C152.965 26.4301 153.065 26.7341 153.083 27.0787C153.119 27.4232 153.056 27.7678 152.892 28.1123C152.729 28.4366 152.457 28.7102 152.076 28.9332C151.459 29.3183 150.761 29.602 149.981 29.7844C149.219 29.9871 148.475 30.0885 147.749 30.0885Z" fill="url(#paint8_linear_128_343)"/>
<path d="M122.636 30.0277C122.001 30.0277 121.511 29.8351 121.166 29.45C120.84 29.0447 120.676 28.4772 120.676 27.7475V10.4185C120.676 9.64828 120.84 9.06052 121.166 8.65516C121.511 8.2498 121.964 8.04712 122.527 8.04712C123.017 8.04712 123.388 8.15859 123.642 8.38154C123.915 8.58422 124.223 8.92877 124.568 9.4152L134.119 23.0048H133.384V10.2969C133.384 9.58748 133.547 9.04025 133.874 8.65516C134.218 8.2498 134.708 8.04712 135.343 8.04712C135.978 8.04712 136.459 8.2498 136.785 8.65516C137.13 9.04025 137.302 9.58748 137.302 10.2969V27.8387C137.302 28.5076 137.148 29.0447 136.84 29.45C136.531 29.8351 136.114 30.0277 135.588 30.0277C135.08 30.0277 134.672 29.9162 134.364 29.6932C134.073 29.4703 133.756 29.1156 133.411 28.6292L123.887 15.0395H124.595V27.7475C124.595 28.4772 124.432 29.0447 124.105 29.45C123.778 29.8351 123.289 30.0277 122.636 30.0277Z" fill="url(#paint9_linear_128_343)"/>
<path d="M105.782 35.5C105.111 35.5 104.594 35.2973 104.231 34.892C103.887 34.5069 103.714 33.9292 103.714 33.159V16.8941C103.714 16.1441 103.887 15.5766 104.231 15.1915C104.594 14.7862 105.093 14.5835 105.728 14.5835C106.399 14.5835 106.907 14.7862 107.252 15.1915C107.596 15.5766 107.769 16.1441 107.769 16.8941V18.9614L107.469 17.7757C107.741 16.8028 108.286 16.0225 109.102 15.4348C109.937 14.8267 110.889 14.5227 111.959 14.5227C113.12 14.5227 114.136 14.8369 115.007 15.4652C115.896 16.0935 116.585 16.9853 117.075 18.1405C117.565 19.2958 117.81 20.674 117.81 22.2752C117.81 23.8763 117.565 25.2647 117.075 26.4402C116.585 27.6158 115.905 28.5177 115.034 29.146C114.163 29.7743 113.138 30.0885 111.959 30.0885C110.907 30.0885 109.973 29.8047 109.156 29.2372C108.34 28.6494 107.787 27.8894 107.497 26.9571H107.823V33.159C107.823 33.9292 107.642 34.5069 107.279 34.892C106.934 35.2973 106.435 35.5 105.782 35.5ZM110.735 26.6531C111.315 26.6531 111.823 26.4909 112.259 26.1666C112.712 25.8423 113.057 25.366 113.293 24.7377C113.547 24.0892 113.673 23.2683 113.673 22.2752C113.673 20.7956 113.401 19.7113 112.857 19.0222C112.313 18.3128 111.605 17.9581 110.735 17.9581C110.154 17.9581 109.637 18.1101 109.184 18.4141C108.748 18.7182 108.404 19.1945 108.15 19.843C107.896 20.4713 107.769 21.2821 107.769 22.2752C107.769 23.7547 108.041 24.8593 108.585 25.589C109.129 26.2984 109.846 26.6531 110.735 26.6531Z" fill="url(#paint10_linear_128_343)"/>
<path d="M89.1741 35.5C88.5029 35.5 87.9859 35.2973 87.6231 34.892C87.2784 34.5069 87.1061 33.9292 87.1061 33.159V16.8941C87.1061 16.1441 87.2784 15.5766 87.6231 15.1915C87.9859 14.7862 88.4848 14.5835 89.1197 14.5835C89.7909 14.5835 90.2988 14.7862 90.6435 15.1915C90.9882 15.5766 91.1605 16.1441 91.1605 16.8941V18.9614L90.8612 17.7757C91.1333 16.8028 91.6775 16.0225 92.4939 15.4348C93.3283 14.8267 94.2807 14.5227 95.351 14.5227C96.512 14.5227 97.5279 14.8369 98.3987 15.4652C99.2876 16.0935 99.9769 16.9853 100.467 18.1405C100.957 19.2958 101.201 20.674 101.201 22.2752C101.201 23.8763 100.957 25.2647 100.467 26.4402C99.9769 27.6158 99.2966 28.5177 98.4259 29.146C97.5551 29.7743 96.5302 30.0885 95.351 30.0885C94.2989 30.0885 93.3646 29.8047 92.5483 29.2372C91.732 28.6494 91.1787 27.8894 90.8884 26.9571H91.215V33.159C91.215 33.9292 91.0335 34.5069 90.6707 34.892C90.3261 35.2973 89.8272 35.5 89.1741 35.5ZM94.1265 26.6531C94.707 26.6531 95.215 26.4909 95.6504 26.1666C96.1039 25.8423 96.4486 25.366 96.6844 24.7377C96.9384 24.0892 97.0653 23.2683 97.0653 22.2752C97.0653 20.7956 96.7932 19.7113 96.249 19.0222C95.7048 18.3128 94.9973 17.9581 94.1265 17.9581C93.546 17.9581 93.029 18.1101 92.5755 18.4141C92.1401 18.7182 91.7955 19.1945 91.5415 19.843C91.2875 20.4713 91.1605 21.2821 91.1605 22.2752C91.1605 23.7547 91.4326 24.8593 91.9769 25.589C92.5211 26.2984 93.2376 26.6531 94.1265 26.6531Z" fill="url(#paint11_linear_128_343)"/>
<path d="M67.516 30.0277C67.008 30.0277 66.5908 29.8959 66.2643 29.6324C65.9559 29.369 65.7563 29.0143 65.6656 28.5684C65.5931 28.1225 65.6747 27.6259 65.9105 27.0787L72.8766 10.0232C73.1668 9.33413 73.5115 8.83757 73.9106 8.53355C74.3097 8.20926 74.7723 8.04712 75.2983 8.04712C75.8244 8.04712 76.287 8.20926 76.6861 8.53355C77.0852 8.83757 77.4208 9.33413 77.6929 10.0232L84.7134 27.0787C84.9492 27.6259 85.0308 28.1326 84.9583 28.5988C84.9039 29.0447 84.7224 29.3994 84.4141 29.6628C84.1057 29.9061 83.7066 30.0277 83.2168 30.0277C82.6 30.0277 82.1193 29.8655 81.7746 29.5412C81.448 29.2169 81.1578 28.7103 80.9038 28.0211L79.2712 23.7953L80.9583 25.1026H69.6112L71.2983 23.7953L69.6929 28.0211C69.4208 28.7305 69.1305 29.2474 68.8221 29.5716C68.5319 29.8757 68.0965 30.0277 67.516 30.0277ZM75.2439 13.337L71.7609 22.6096L71.0262 21.4239H79.5433L78.8086 22.6096L75.2983 13.337H75.2439Z" fill="url(#paint12_linear_128_343)"/>
<defs>
<linearGradient id="paint0_linear_128_343" x1="7.32388" y1="42.64" x2="31.5117" y2="12.5711" gradientUnits="userSpaceOnUse">
<stop offset="0.000999756" stop-color="#E4733D"/>
<stop offset="0.549072" stop-color="#819911"/>
<stop offset="0.988255" stop-color="#19715F"/>
</linearGradient>
<linearGradient id="paint1_linear_128_343" x1="6.15681" y1="1.7551" x2="8.337" y2="18.9482" gradientUnits="userSpaceOnUse">
<stop offset="0.0759998" stop-color="#58AA23"/>
<stop offset="1" stop-color="#116927"/>
</linearGradient>
<linearGradient id="paint2_linear_128_343" x1="20.2635" y1="4.71005" x2="55.3801" y2="21.6386" gradientUnits="userSpaceOnUse">
<stop offset="0.35192" stop-color="#19715F"/>
<stop offset="0.830631" stop-color="#819911"/>
</linearGradient>
<linearGradient id="paint3_linear_128_343" x1="65.0398" y1="16.9244" x2="240.832" y2="16.9244" gradientUnits="userSpaceOnUse">
<stop stop-color="#EB7140"/>
<stop offset="0.447681" stop-color="#819911"/>
<stop offset="1" stop-color="#19715F"/>
</linearGradient>
<linearGradient id="paint4_linear_128_343" x1="65.0397" y1="16.9244" x2="240.832" y2="16.9244" gradientUnits="userSpaceOnUse">
<stop stop-color="#EB7140"/>
<stop offset="0.447681" stop-color="#819911"/>
<stop offset="1" stop-color="#19715F"/>
</linearGradient>
<linearGradient id="paint5_linear_128_343" x1="65.0395" y1="16.9245" x2="240.832" y2="16.9245" gradientUnits="userSpaceOnUse">
<stop stop-color="#EB7140"/>
<stop offset="0.447681" stop-color="#819911"/>
<stop offset="1" stop-color="#19715F"/>
</linearGradient>
<linearGradient id="paint6_linear_128_343" x1="65.0396" y1="16.9244" x2="240.832" y2="16.9244" gradientUnits="userSpaceOnUse">
<stop stop-color="#EB7140"/>
<stop offset="0.447681" stop-color="#819911"/>
<stop offset="1" stop-color="#19715F"/>
</linearGradient>
<linearGradient id="paint7_linear_128_343" x1="65.0399" y1="16.9247" x2="240.832" y2="16.9247" gradientUnits="userSpaceOnUse">
<stop stop-color="#EB7140"/>
<stop offset="0.447681" stop-color="#819911"/>
<stop offset="1" stop-color="#19715F"/>
</linearGradient>
<linearGradient id="paint8_linear_128_343" x1="65.0397" y1="16.9244" x2="240.832" y2="16.9244" gradientUnits="userSpaceOnUse">
<stop stop-color="#EB7140"/>
<stop offset="0.447681" stop-color="#819911"/>
<stop offset="1" stop-color="#19715F"/>
</linearGradient>
<linearGradient id="paint9_linear_128_343" x1="65.0397" y1="16.9244" x2="240.832" y2="16.9244" gradientUnits="userSpaceOnUse">
<stop stop-color="#EB7140"/>
<stop offset="0.447681" stop-color="#819911"/>
<stop offset="1" stop-color="#19715F"/>
</linearGradient>
<linearGradient id="paint10_linear_128_343" x1="65.0396" y1="16.9244" x2="240.832" y2="16.9244" gradientUnits="userSpaceOnUse">
<stop stop-color="#EB7140"/>
<stop offset="0.447681" stop-color="#819911"/>
<stop offset="1" stop-color="#19715F"/>
</linearGradient>
<linearGradient id="paint11_linear_128_343" x1="65.0398" y1="16.9244" x2="240.832" y2="16.9244" gradientUnits="userSpaceOnUse">
<stop stop-color="#EB7140"/>
<stop offset="0.447681" stop-color="#819911"/>
<stop offset="1" stop-color="#19715F"/>
</linearGradient>
<linearGradient id="paint12_linear_128_343" x1="65.0398" y1="16.9244" x2="240.832" y2="16.9244" gradientUnits="userSpaceOnUse">
<stop stop-color="#EB7140"/>
<stop offset="0.447681" stop-color="#819911"/>
<stop offset="1" stop-color="#19715F"/>
</linearGradient>
</defs>
</svg>
