<svg width="215" height="44" viewBox="0 0 215 44" fill="none" xmlns="http://www.w3.org/2000/svg">
<path d="M42.802 27.1581C42.5571 29.2492 42.2506 31.2336 41.7259 33.1385C41.5795 33.6702 41.7385 33.9893 41.9299 34.3919C42.386 35.3511 42.3066 36.4488 41.7689 37.248C41.2833 37.9698 40.4755 38.2032 39.8202 37.811C39.1444 37.4066 38.7241 36.4214 38.8151 35.3755C38.9067 34.3223 39.4016 33.7047 40.1281 33.5076C40.6412 33.3684 40.8809 33.0078 41.0429 32.3717C41.4814 30.6504 41.7802 28.7139 41.9605 26.9124C42.4193 23.7501 42.2406 24.8197 42.5269 24.781C42.874 24.7342 43.118 24.4603 42.802 27.1581ZM40.0739 35.6437C40.0862 36.2313 40.3364 36.3875 40.6883 36.1726C40.9127 36.0356 41.0407 35.694 40.8553 35.3901C40.5918 34.9581 40.3238 35.073 40.0739 35.6437Z" fill="#0C7264"/>
<path d="M12.264 8.75184C13.1742 11.2783 12.3906 13.4234 11.2542 15.5331C10.6043 14.965 10.2553 14.0451 9.63674 11.4344C9.64273 12.2079 9.75698 12.9679 9.93601 13.7148C10.1145 14.4594 10.3202 15.1962 10.5202 15.9604C9.25365 15.6948 6.90881 12.7331 6.77622 10.3695C6.6359 7.86818 8.44664 4.34519 10.2517 3.7583C10.2227 5.13676 11.0982 6.0849 11.5968 7.21537C11.8139 7.70775 12.0298 8.2008 12.264 8.75184Z" fill="url(#paint0_linear_61_113)"/>
<path d="M4.46633 15.1284C6.02912 14.3079 7.05652 14.4796 8.16585 15.5909C8.59362 16.0194 8.66861 16.4818 8.06762 16.9974C7.1475 17.7869 6.0952 18.0983 4.93677 17.5339C4.39935 17.2721 3.90187 16.9185 3.30235 16.7893C2.8796 16.6982 2.95038 16.3772 3.20831 16.1061C3.56943 15.7265 3.97648 15.4139 4.46633 15.1284Z" fill="#0C7264"/>
<g filter="url(#filter0_d_61_113)">
<path d="M5.29958 31.7725C2.42549 26.3151 4.76137 18.7481 9.79916 17.548C10.6388 17.348 11.4863 17.3333 12.3178 17.5332C12.8168 17.6532 12.9916 17.4421 13.1252 16.8551C14.4429 11.0683 17.3962 7.59588 21.9372 6.46151C26.2606 5.3815 31.2858 8.83509 33.079 14.0956C33.2899 14.7143 33.5498 14.9935 34.0669 15.1479C37.8074 16.2655 40.2986 20.6171 40.2301 25.8242C40.1703 30.3729 37.4155 34.4655 33.7761 35.3779C33.3527 35.484 32.9084 35.4747 32.4737 35.475C25.3592 35.4796 18.2445 35.4444 11.1301 35.4943C8.70005 35.5113 6.82089 34.251 5.29958 31.7725ZM27.9885 13.6077C28.5628 14.2629 28.7877 15.0383 28.4331 15.9795C28.0734 16.9339 27.471 17.3119 26.6793 17.0861C26.3466 16.9911 26.1089 17.1122 25.854 17.3626C25.3538 17.8539 24.8335 18.3103 24.3227 18.7834C21.1542 21.7174 18.4428 25.1091 17.4343 30.2551C17.2696 31.0956 16.7956 31.6616 16.1077 31.8064C15.3788 31.9598 14.7602 31.7054 14.3155 30.8844C14.1915 30.6556 14.0618 30.3022 13.8972 30.2611C12.6621 29.9523 11.8927 28.6015 10.8012 27.9746C10.1948 27.6262 9.86291 26.952 10.0816 26.0653C10.2899 25.2207 10.8239 24.948 11.4559 25.1214C12.2206 25.3313 12.4052 26.0532 12.327 26.9775C12.2425 27.9752 12.9149 28.1323 13.3762 28.4969C13.7902 28.8242 14.0673 28.6007 14.4241 28.1669C15.5377 26.8128 15.2844 23.4806 13.8008 21.8737C12.2751 20.2212 10.145 20.0578 8.39828 21.5204C6.86039 22.8083 6.0192 25.6057 6.49375 27.854C7.07666 30.6158 8.6517 32.33 10.7095 32.3545C13.1905 32.3841 15.6721 32.3306 18.1528 32.3708C18.8595 32.3823 19.0086 32.0042 19.0249 31.169C19.1161 26.4999 21.5782 22.7756 25.0787 21.9001C26.0933 21.6463 27.1185 21.4068 28.1009 21.004C31.5436 19.5925 32.1925 16.4214 29.7172 12.9777C27.4116 9.77016 24.546 8.67016 21.3037 9.85513C17.9932 11.0651 16.042 14.072 15.2379 18.3923C15.1313 18.9649 15.3178 19.3272 15.6021 19.7045C16.8105 21.3083 17.3768 23.2407 17.3193 25.4905C17.3104 25.8375 17.2121 26.2236 17.4355 26.6424C18.1168 25.2823 18.7039 23.9658 19.4564 22.7891C20.9948 20.384 22.9016 18.5611 24.8714 16.8313C25.2956 16.4587 25.5949 16.1015 25.5859 15.3162C25.5658 13.564 26.6204 12.7741 27.9885 13.6077Z" fill="url(#paint1_linear_61_113)"/>
</g>
<g filter="url(#filter1_d_61_113)">
<path fill-rule="evenodd" clip-rule="evenodd" d="M16.1073 31.8065C16.1074 31.8064 16.1076 31.8064 16.1077 31.8064C16.7956 31.6616 17.2696 31.0956 17.4343 30.2551C18.4428 25.1091 21.1542 21.7174 24.3227 18.7834C24.487 18.6312 24.6523 18.4807 24.8176 18.3303C25.1662 18.013 25.5147 17.6958 25.854 17.3626C26.1089 17.1122 26.3466 16.9911 26.6793 17.0861C27.471 17.3119 28.0734 16.9339 28.4331 15.9795C28.7877 15.0383 28.5628 14.2629 27.9885 13.6077C26.6204 12.7741 25.5658 13.564 25.5859 15.3162C25.5949 16.1015 25.2956 16.4587 24.8714 16.8313C22.9016 18.5611 20.9948 20.384 19.4564 22.7891C18.883 23.6856 18.4057 24.6634 17.9096 25.6797C17.8596 25.7821 17.8094 25.8849 17.7589 25.988C17.6528 26.2048 17.5454 26.423 17.4355 26.6424C17.282 26.3546 17.2804 26.0823 17.2973 25.8275C17.2998 25.7895 17.3027 25.7519 17.3056 25.7147C17.3116 25.6382 17.3174 25.5635 17.3193 25.4905C17.3768 23.2407 16.8105 21.3083 15.6021 19.7045C15.3178 19.3272 15.1313 18.9649 15.2379 18.3923C16.042 14.072 17.9932 11.0651 21.3037 9.85513C24.546 8.67016 27.4116 9.77016 29.7172 12.9777C32.1925 16.4214 31.5436 19.5925 28.1009 21.004C27.2055 21.3711 26.2745 21.6026 25.3484 21.8329C25.2585 21.8552 25.1686 21.8776 25.0787 21.9001C21.5782 22.7756 19.1161 26.4999 19.0249 31.169C19.0086 32.0042 18.8595 32.3823 18.1528 32.3708C17.4843 32.36 16.8156 32.3559 16.147 32.3552C15.8729 32.355 15.5987 32.3552 15.3246 32.3559C14.9518 32.3567 14.579 32.3581 14.2063 32.3595C13.0406 32.364 11.875 32.3684 10.7095 32.3545C8.6517 32.33 7.07666 30.6158 6.49375 27.854C6.0192 25.6057 6.86039 22.8083 8.39828 21.5204C10.145 20.0578 12.2751 20.2212 13.8008 21.8737C15.2844 23.4806 15.5377 26.8128 14.4241 28.1669C14.0673 28.6007 13.7902 28.8242 13.3762 28.4969C13.2814 28.422 13.1777 28.3558 13.0735 28.2893C12.6705 28.0322 12.2599 27.7702 12.327 26.9775C12.4052 26.0532 12.2206 25.3313 11.4559 25.1214C10.8239 24.948 10.2899 25.2207 10.0816 26.0653C9.86291 26.952 10.1948 27.6262 10.8012 27.9746C11.2483 28.2314 11.6413 28.6096 12.0344 28.9879C12.601 29.5332 13.1679 30.0787 13.8972 30.2611C14.0244 30.2929 14.1308 30.5112 14.2298 30.7144C14.2589 30.7741 14.2873 30.8325 14.3155 30.8844C14.601 31.4114 14.9581 31.705 15.3701 31.807C15.5997 31.8639 15.8464 31.8613 16.1073 31.8065ZM27.7103 14.0578C27.1486 13.7361 26.7489 13.7885 26.5126 13.9593C26.2668 14.1369 26.0456 14.5522 26.0543 15.3088C26.0599 15.7921 25.969 16.1858 25.7867 16.5224C25.6123 16.8445 25.3737 17.076 25.1524 17.2703C23.1894 18.9942 21.3277 20.7786 19.8314 23.1181C19.7047 23.3162 19.5831 23.5179 19.4649 23.7233C20.7385 21.6541 22.3294 19.9296 24.0321 18.3529C24.2032 18.1945 24.372 18.0408 24.539 17.8889C24.8836 17.5753 25.2203 17.2688 25.553 16.9421C25.7041 16.7937 25.8811 16.6521 26.095 16.5721C26.3176 16.4888 26.5484 16.4839 26.7902 16.5529L26.7005 16.9844L26.7902 16.5529C27.0982 16.6408 27.3239 16.6008 27.4963 16.4921C27.6737 16.3803 27.8535 16.1586 28.0045 15.758C28.1458 15.3829 28.1598 15.0785 28.1046 14.819C28.0516 14.5701 27.925 14.3168 27.7103 14.0578ZM18.087 26.421C17.619 27.5548 17.2418 28.7848 16.9777 30.1323C16.8506 30.7811 16.5093 31.1644 16.0249 31.2663C15.7277 31.3288 15.4854 31.302 15.2852 31.2042C15.087 31.1076 14.891 30.9227 14.711 30.5904C14.6891 30.5499 14.6661 30.5028 14.6354 30.4398L14.6277 30.4241C14.596 30.359 14.5563 30.2782 14.513 30.201C14.4707 30.1255 14.4137 30.033 14.3414 29.9505C14.2712 29.8705 14.1562 29.7647 13.9949 29.7244C13.4928 29.5989 13.065 29.2575 12.5887 28.8093C12.5104 28.7356 12.4299 28.658 12.3471 28.5782C11.9534 28.1986 11.5086 27.7698 11.0075 27.4819C10.7806 27.3516 10.6327 27.1769 10.5549 26.9856C10.479 26.7992 10.4499 26.5491 10.5316 26.2176C10.6091 25.9034 10.7284 25.7608 10.8338 25.6936C10.9449 25.6228 11.1118 25.5906 11.3491 25.6557C11.6071 25.7265 11.7205 25.8608 11.7852 26.0189C11.8632 26.2095 11.8964 26.5035 11.8608 26.9234C11.8334 27.2474 11.8649 27.5393 11.9593 27.7994C12.0537 28.0592 12.1977 28.2507 12.3475 28.3966C12.4923 28.5376 12.6513 28.6438 12.7799 28.7267C12.8069 28.7442 12.8325 28.7605 12.8567 28.776C12.9593 28.8415 13.0394 28.8927 13.1141 28.9518C13.4162 29.1906 13.7437 29.2742 14.079 29.1342C14.3595 29.017 14.5854 28.7617 14.7614 28.5476C15.4538 27.7058 15.6691 26.3408 15.5522 25.0569C15.4338 23.7565 14.9635 22.3857 14.1189 21.4708C12.4275 19.6388 10.0504 19.4624 8.12584 21.074C7.26301 21.7966 6.61766 22.9204 6.24949 24.1447C5.88097 25.3702 5.77638 26.7416 6.03897 27.9857C6.6588 30.9225 8.37882 32.8755 10.7048 32.9033C11.8735 32.9172 13.042 32.9127 14.2069 32.9083L14.4328 32.9074C15.6736 32.9028 16.9105 32.8995 18.1464 32.9195C18.5586 32.9262 18.9605 32.8221 19.2213 32.4186C19.4491 32.0661 19.4852 31.5958 19.4933 31.1815C19.5802 26.7314 21.9163 23.2522 25.1765 22.4367C25.2669 22.4141 25.3576 22.3916 25.4488 22.3689C26.3701 22.1399 27.3304 21.9013 28.2557 21.5219C30.0624 20.7812 31.2506 19.5281 31.5842 17.8794C31.9153 16.2426 31.3623 14.4143 30.0755 12.6242C28.878 10.9582 27.5146 9.81192 26.0043 9.24652C24.4915 8.68018 22.8653 8.70956 21.1642 9.3313C17.6545 10.614 15.6107 13.8132 14.7802 18.2754C14.7086 18.6597 14.7324 19.0031 14.8363 19.319C14.9353 19.6201 15.0972 19.8636 15.2509 20.0676C16.3749 21.5593 16.9052 23.3532 16.851 25.4741C16.8503 25.5029 16.8466 25.5431 16.842 25.5926C16.8168 25.8652 16.7653 26.4215 17.0381 26.9331L17.448 27.7016L17.8395 26.9201C17.9238 26.7519 18.0061 26.5855 18.087 26.421ZM5.68965 31.468C4.3423 28.8976 4.21483 25.8267 5.02214 23.253C5.83089 20.6747 7.56025 18.6414 9.89252 18.0858C10.6757 17.8992 11.4592 17.8869 12.2236 18.0707C12.5225 18.1426 12.8609 18.1506 13.145 17.8934C13.4011 17.6615 13.509 17.2989 13.5778 16.9965C14.2202 14.1754 15.2533 11.9521 16.6547 10.3005C18.0541 8.65118 19.8429 7.54575 22.0349 6.99818C26.1045 5.98158 30.9232 9.25108 32.644 14.299C32.7642 14.6517 32.9153 14.9589 33.1426 15.2015C33.3724 15.4467 33.6444 15.588 33.9511 15.6797C37.4375 16.7213 39.8276 20.8052 39.7617 25.8158C39.705 30.1266 37.0895 33.986 33.6781 34.8413C33.3381 34.9265 32.9778 34.9264 32.5629 34.9262C32.5334 34.9262 32.5036 34.9262 32.4735 34.9262C30.2083 34.9277 27.9424 34.9251 25.6761 34.9226C20.8273 34.9171 15.9767 34.9116 11.1273 34.9455C8.87676 34.9613 7.1346 33.8145 5.68965 31.468ZM9.79916 17.548C4.76137 18.7481 2.42549 26.3151 5.29958 31.7725C6.82089 34.251 8.70005 35.5113 11.1301 35.4943C15.9779 35.4603 20.8258 35.4658 25.6737 35.4713C27.9404 35.4739 30.2071 35.4764 32.4737 35.475C32.5071 35.475 32.5406 35.475 32.5741 35.475C32.9765 35.4755 33.3852 35.4759 33.7761 35.3779C37.4155 34.4655 40.1703 30.3729 40.2301 25.8242C40.2986 20.6171 37.8074 16.2655 34.0669 15.1479C33.5498 14.9935 33.2899 14.7143 33.079 14.0956C31.2858 8.83509 26.2606 5.3815 21.9372 6.46151C17.3962 7.59588 14.4429 11.0683 13.1252 16.8551C12.9916 17.4421 12.8168 17.6532 12.3178 17.5332C11.4863 17.3333 10.6388 17.348 9.79916 17.548Z" fill="#0C7264" fill-opacity="0.5" shape-rendering="crispEdges"/>
</g>
<path d="M41.3383 16.4112C41.2059 15.8488 41.0893 15.3706 40.9884 14.8868C40.8447 14.1971 40.6118 13.7307 40.008 13.508C39.2723 13.2366 38.9096 12.3992 39.0789 11.4017C39.2088 10.6362 39.0313 10.1249 38.6957 9.55208C36.7683 6.26151 34.2648 4.08257 31.2906 2.79448C30.9058 2.62781 30.5593 2.53131 30.1475 2.91675C29.577 3.45064 28.9382 3.35076 28.4633 2.61926C28.2083 2.22651 27.9366 2.05303 27.5552 2.03851C24.9368 1.93881 22.4142 2.59112 19.9364 3.65126C19.4671 3.85205 19.3793 4.35808 19.1917 4.82897C18.8163 5.77181 18.2063 6.27064 17.3904 6.17988C16.6082 6.09286 16.0788 5.49913 15.8387 4.52332C15.5867 3.49896 15.7964 2.60774 16.4116 1.90135C17.1374 1.06779 18.2552 1.14666 18.8819 2.21261C19.2138 2.77725 19.4741 2.74678 19.9017 2.56423C22.4814 1.46285 25.1112 0.775394 27.8421 1.06192C28.1304 1.09217 28.2767 0.928112 28.4592 0.680634C29.1767 -0.29228 29.9724 -0.22457 30.4805 0.899243C30.684 1.34949 30.9288 1.56838 31.2817 1.70812C34.6413 3.03821 37.4276 5.48431 39.5801 9.15128C39.79 9.50883 39.9963 9.7039 40.3895 9.69494C41.7143 9.66476 42.454 11.1922 41.8172 12.6965C41.5404 13.3504 41.5609 13.8429 41.7515 14.4935C42.3712 16.6083 42.7385 18.8131 42.9378 21.0625C42.9821 21.562 43.1274 21.8915 43.4265 22.2191C44.1108 22.9687 44.1777 24.0842 43.6527 24.8806C43.1828 25.5934 42.3711 25.6733 41.8195 25.0611C41.2148 24.3899 41.1245 23.3639 41.7159 22.4949C42.1526 21.8534 42.1014 21.1791 42.0178 20.483C41.8562 19.1384 41.6766 17.7951 41.3383 16.4112Z" fill="url(#paint2_linear_61_113)"/>
<path d="M36.6866 26.8159L35.777 30.8679H34.8925L34.4126 28.6326L33.9603 30.8679H33.0381L32.126 26.8159H33.116L33.5959 29.1521L34.0633 26.8159H34.8925L35.4001 29.1521L35.88 26.8159H36.6866Z" fill="white"/>
<path d="M30.5027 30.8679H29.6458L28.7061 29.0779C28.5855 28.8484 28.464 28.5693 28.3417 28.2408C28.397 28.502 28.4246 28.7237 28.4246 28.9057V30.8679H27.5703V26.8159H28.5654L29.3644 28.3002C29.5235 28.595 29.6442 28.8543 29.7262 29.0779C29.6726 28.7316 29.6458 28.3774 29.6458 28.0152V26.8159H30.5027V30.8679Z" fill="white"/>
<path d="M24.8942 30.8679L24.7007 30.0694H23.7811L23.575 30.8679H22.7207L23.7811 26.8159H24.8942L25.9672 30.8679H24.8942ZM23.9595 29.1848H24.5173L24.2384 28.0093L23.9595 29.1848Z" fill="white"/>
<path d="M11.5887 26.7252C11.5887 26.9558 11.42 27.1428 11.2118 27.1428C11.0037 27.1428 10.835 26.9558 10.835 26.7252C10.835 26.4946 11.0037 26.3076 11.2118 26.3076C11.42 26.3076 11.5887 26.4946 11.5887 26.7252Z" fill="#F5F5F5"/>
<path d="M41.0643 11.692C41.0643 11.9226 40.8956 12.1096 40.6874 12.1096C40.4793 12.1096 40.3105 11.9226 40.3105 11.692C40.3105 11.4614 40.4793 11.2744 40.6874 11.2744C40.8956 11.2744 41.0643 11.4614 41.0643 11.692Z" fill="#F5F5F5"/>
<path d="M42.9481 23.8023C42.9481 24.033 42.7793 24.2199 42.5712 24.2199C42.3631 24.2199 42.1943 24.033 42.1943 23.8023C42.1943 23.5717 42.3631 23.3848 42.5712 23.3848C42.7793 23.3848 42.9481 23.5717 42.9481 23.8023Z" fill="#F5F5F5"/>
<path d="M16.1903 29.8568C16.1903 30.2028 16.0215 30.4832 15.8134 30.4832C15.6053 30.4832 15.4365 30.2028 15.4365 29.8568C15.4365 29.5109 15.6053 29.2305 15.8134 29.2305C16.0215 29.2305 16.1903 29.5109 16.1903 29.8568Z" fill="#F5F5F5"/>
<path d="M27.4178 15.2416C27.4178 15.5875 27.2491 15.868 27.0409 15.868C26.8328 15.868 26.6641 15.5875 26.6641 15.2416C26.6641 14.8957 26.8328 14.6152 27.0409 14.6152C27.2491 14.6152 27.4178 14.8957 27.4178 15.2416Z" fill="#F5F5F5"/>
<path d="M29.6785 1.67051C29.6785 1.90114 29.5098 2.08809 29.3017 2.08809C29.0935 2.08809 28.9248 1.90114 28.9248 1.67051C28.9248 1.43989 29.0935 1.25293 29.3017 1.25293C29.5098 1.25293 29.6785 1.43989 29.6785 1.67051Z" fill="#F5F5F5"/>
<path d="M17.9234 3.72431C17.9072 4.19826 17.6128 4.56587 17.2658 4.54539C16.9189 4.52491 16.6507 4.1241 16.6669 3.65015C16.6832 3.1762 16.9775 2.80859 17.3245 2.82907C17.6714 2.84955 17.9396 3.25036 17.9234 3.72431Z" fill="#F5F5F5"/>
<path d="M5.94165 16.0488L7.51019 15.9742L8.51463 15.9746L8.51468 16.2115L8.50242 16.336L7.59429 16.2864L5.94165 16.0488Z" fill="#F5F5F5"/>
<path d="M208.055 29.4457C206.742 29.4457 205.563 29.2586 204.521 28.8846C203.478 28.5012 202.592 27.9729 201.862 27.2997C201.142 26.6264 200.59 25.8456 200.204 24.9573C199.818 24.0597 199.625 23.1059 199.625 22.096V21.535C199.625 20.3849 199.807 19.3329 200.172 18.3791C200.537 17.4254 201.059 16.5978 201.737 15.8965C202.425 15.1953 203.259 14.6576 204.239 14.2836C205.219 13.9002 206.325 13.7085 207.555 13.7085C208.754 13.7085 209.818 13.8862 210.746 14.2415C211.674 14.5968 212.451 15.1017 213.076 15.7563C213.712 16.4108 214.192 17.1963 214.515 18.1127C214.838 19.0197 215 20.0295 215 21.1423V22.8254H201.549V20.1324H210.574V19.8238C210.574 19.2628 210.459 18.7625 210.23 18.323C210.011 17.8742 209.677 17.5189 209.229 17.2571C208.78 16.9953 208.207 16.8643 207.508 16.8643C206.914 16.8643 206.403 16.9812 205.975 17.215C205.548 17.4488 205.198 17.776 204.927 18.1968C204.667 18.6176 204.468 19.1132 204.333 19.6836C204.208 20.2446 204.145 20.8617 204.145 21.535V22.096C204.145 22.7038 204.239 23.2649 204.427 23.7792C204.625 24.2934 204.901 24.7376 205.256 25.1116C205.621 25.4856 206.059 25.7755 206.57 25.9812C207.091 26.1869 207.68 26.2898 208.337 26.2898C209.15 26.2898 209.906 26.1495 210.605 25.869C211.314 25.5792 211.924 25.1444 212.435 24.5646L214.625 26.6966C214.27 27.1547 213.785 27.5942 213.17 28.015C212.565 28.4358 211.835 28.7818 210.98 29.0529C210.125 29.3147 209.15 29.4457 208.055 29.4457Z" fill="#3C8E83"/>
<path d="M192.961 24.9714C192.961 24.6815 192.868 24.4197 192.68 24.1859C192.492 23.9521 192.143 23.7371 191.632 23.5407C191.131 23.335 190.407 23.148 189.458 22.9797C188.603 22.8114 187.805 22.601 187.065 22.3485C186.335 22.0867 185.699 21.7734 185.157 21.4088C184.625 21.0441 184.208 20.614 183.905 20.1184C183.603 19.6134 183.452 19.0384 183.452 18.3932C183.452 17.7573 183.603 17.1589 183.905 16.5978C184.218 16.0368 184.661 15.5412 185.235 15.1111C185.819 14.6716 186.528 14.3303 187.362 14.0872C188.207 13.8347 189.155 13.7085 190.209 13.7085C191.679 13.7085 192.941 13.9189 193.994 14.3397C195.057 14.7604 195.871 15.3402 196.434 16.0789C197.007 16.8082 197.294 17.6404 197.294 18.5755H192.789C192.789 18.1828 192.696 17.8321 192.508 17.5236C192.331 17.2056 192.049 16.9578 191.663 16.7802C191.288 16.5932 190.798 16.4997 190.193 16.4997C189.692 16.4997 189.26 16.5791 188.895 16.7381C188.53 16.8877 188.248 17.0934 188.05 17.3553C187.862 17.6077 187.769 17.8882 187.769 18.1968C187.769 18.4306 187.821 18.641 187.925 18.828C188.04 19.0056 188.222 19.1693 188.472 19.3189C188.723 19.4685 189.046 19.6088 189.442 19.7397C189.849 19.8612 190.349 19.9734 190.944 20.0763C192.164 20.3007 193.253 20.5953 194.213 20.9599C195.172 21.3153 195.933 21.8015 196.496 22.4186C197.059 23.0264 197.341 23.8259 197.341 24.8171C197.341 25.4903 197.174 26.1075 196.84 26.6685C196.507 27.2295 196.027 27.7205 195.401 28.1412C194.776 28.5527 194.025 28.8753 193.149 29.109C192.284 29.3334 191.309 29.4457 190.224 29.4457C188.65 29.4457 187.315 29.1932 186.22 28.6883C185.136 28.1833 184.312 27.5428 183.749 26.7667C183.196 25.9812 182.92 25.1771 182.92 24.3542H187.19C187.211 24.9059 187.367 25.3501 187.659 25.6867C187.962 26.0233 188.342 26.2664 188.801 26.416C189.27 26.5657 189.776 26.6405 190.318 26.6405C190.902 26.6405 191.387 26.5703 191.773 26.4301C192.159 26.2805 192.451 26.0841 192.649 25.841C192.857 25.5885 192.961 25.2986 192.961 24.9714Z" fill="#3C8E83"/>
<path d="M180.089 13.9891V29.1652H175.569V13.9891H180.089ZM175.287 10.0338C175.287 9.44468 175.517 8.95844 175.975 8.57507C176.434 8.19169 177.049 8 177.821 8C178.582 8 179.192 8.19169 179.651 8.57507C180.12 8.95844 180.355 9.44468 180.355 10.0338C180.355 10.6229 180.12 11.1091 179.651 11.4925C179.192 11.8758 178.582 12.0675 177.821 12.0675C177.049 12.0675 176.434 11.8758 175.975 11.4925C175.517 11.1091 175.287 10.6229 175.287 10.0338Z" fill="#3C8E83"/>
<path d="M156.643 25.2381L160.162 13.9893H163.025L162.102 18.4074L158.582 29.1654H156.189L156.643 25.2381ZM154.86 13.9893L157.378 25.2241L157.613 29.1654H154.797L150.512 13.9893H154.86ZM166.247 25.0417L168.702 13.9893H173.066L168.78 29.1654H165.981L166.247 25.0417ZM163.416 13.9893L166.919 25.1539L167.404 29.1654H164.995L161.476 18.4215L160.585 13.9893H163.416Z" fill="#3C8E83"/>
<path d="M149.245 13.9891V16.8504H139.392V13.9891H149.245ZM141.832 10.2441H146.336V24.5927C146.336 25.0322 146.399 25.3688 146.524 25.6026C146.659 25.8364 146.858 26 147.118 26.0935C147.379 26.1777 147.707 26.2197 148.104 26.2197C148.385 26.2197 148.635 26.2104 148.854 26.1917C149.084 26.1636 149.277 26.1356 149.433 26.1075L149.449 29.081C149.063 29.1932 148.646 29.2821 148.197 29.3475C147.749 29.413 147.254 29.4457 146.712 29.4457C145.721 29.4457 144.856 29.3008 144.115 29.0109C143.385 28.7117 142.822 28.2348 142.426 27.5803C142.03 26.9257 141.832 26.0655 141.832 24.9995V10.2441Z" fill="#0C7264"/>
<path d="M131.446 29.4457C130.132 29.4457 128.954 29.2586 127.911 28.8846C126.869 28.5012 125.982 27.9729 125.252 27.2997C124.533 26.6264 123.98 25.8456 123.594 24.9573C123.209 24.0597 123.016 23.1059 123.016 22.096V21.535C123.016 20.3849 123.198 19.3329 123.563 18.3791C123.928 17.4254 124.449 16.5978 125.127 15.8965C125.815 15.1953 126.65 14.6576 127.63 14.2836C128.61 13.9002 129.715 13.7085 130.946 13.7085C132.145 13.7085 133.208 13.8862 134.136 14.2415C135.064 14.5968 135.841 15.1017 136.467 15.7563C137.103 16.4108 137.583 17.1963 137.906 18.1127C138.229 19.0197 138.391 20.0295 138.391 21.1423V22.8254H124.939V20.1324H133.964V19.8238C133.964 19.2628 133.85 18.7625 133.62 18.323C133.401 17.8742 133.068 17.5189 132.619 17.2571C132.171 16.9953 131.597 16.8643 130.899 16.8643C130.304 16.8643 129.793 16.9812 129.366 17.215C128.938 17.4488 128.589 17.776 128.318 18.1968C128.057 18.6176 127.859 19.1132 127.724 19.6836C127.598 20.2446 127.536 20.8617 127.536 21.535V22.096C127.536 22.7038 127.63 23.2649 127.817 23.7792C128.016 24.2934 128.292 24.7376 128.646 25.1116C129.011 25.4856 129.449 25.7755 129.96 25.9812C130.482 26.1869 131.071 26.2898 131.728 26.2898C132.541 26.2898 133.297 26.1495 133.996 25.869C134.705 25.5792 135.315 25.1444 135.826 24.5646L138.015 26.6966C137.661 27.1547 137.176 27.5942 136.561 28.015C135.956 28.4358 135.226 28.7818 134.371 29.0529C133.516 29.3147 132.541 29.4457 131.446 29.4457Z" fill="#0C7264"/>
<path d="M110.111 17.229V29.1651H105.606V13.989H109.83L110.111 17.229ZM109.454 21.0441H108.234C108.234 19.922 108.396 18.9121 108.719 18.0145C109.042 17.1075 109.496 16.336 110.08 15.7002C110.664 15.055 111.357 14.5641 112.16 14.2275C112.973 13.8815 113.881 13.7085 114.882 13.7085C115.674 13.7085 116.399 13.8114 117.056 14.0171C117.713 14.2228 118.276 14.5501 118.745 14.9989C119.225 15.4477 119.589 16.0415 119.84 16.7802C120.1 17.5189 120.231 18.4212 120.231 19.4872V29.1651H115.695V19.4732C115.695 18.7999 115.591 18.2763 115.382 17.9023C115.174 17.5282 114.866 17.2664 114.459 17.1168C114.063 16.9578 113.573 16.8784 112.989 16.8784C112.384 16.8784 111.858 16.9859 111.409 17.201C110.971 17.416 110.606 17.7153 110.314 18.0986C110.033 18.4727 109.819 18.9121 109.673 19.4171C109.527 19.922 109.454 20.4643 109.454 21.0441Z" fill="#0C7264"/>
<path d="M92.1872 16.9064V34.9999H87.6826V13.989H91.8588L92.1872 16.9064ZM102.901 21.4088V21.7033C102.901 22.8067 102.755 23.8306 102.463 24.775C102.182 25.7194 101.765 26.5423 101.212 27.2436C100.659 27.9355 99.9712 28.4779 99.1475 28.8706C98.3341 29.254 97.3957 29.4457 96.3321 29.4457C95.2998 29.4457 94.403 29.2586 93.6418 28.8846C92.8806 28.5106 92.2394 27.987 91.718 27.3137C91.2071 26.6311 90.7952 25.841 90.4824 24.9433C90.1695 24.0456 89.9297 23.0825 89.7629 22.054V21.2825C89.9297 20.1792 90.1695 19.1693 90.4824 18.2529C90.7952 17.3272 91.2071 16.5277 91.718 15.8545C92.2394 15.1719 92.8754 14.6436 93.6262 14.2695C94.3874 13.8955 95.2789 13.7085 96.3008 13.7085C97.3748 13.7085 98.3185 13.8908 99.1318 14.2555C99.9556 14.6202 100.644 15.1438 101.196 15.8264C101.76 16.509 102.182 17.3225 102.463 18.2669C102.755 19.2114 102.901 20.2586 102.901 21.4088ZM98.3811 21.7033V21.4088C98.3811 20.7636 98.3185 20.1698 98.1934 19.6275C98.0787 19.0758 97.891 18.5942 97.6303 18.1828C97.38 17.7714 97.0464 17.4534 96.6293 17.229C96.2226 16.9953 95.7273 16.8784 95.1434 16.8784C94.5282 16.8784 94.0016 16.9672 93.5636 17.1449C93.1361 17.3225 92.7868 17.5797 92.5157 17.9163C92.2446 18.2529 92.0412 18.655 91.9057 19.1225C91.7701 19.5901 91.6867 20.1184 91.6554 20.7075V22.6571C91.7076 23.349 91.8536 23.9708 92.0934 24.5225C92.3332 25.0649 92.7034 25.495 93.2039 25.8129C93.7044 26.1308 94.3613 26.2898 95.1747 26.2898C95.769 26.2898 96.2695 26.1729 96.6762 25.9392C97.0829 25.696 97.4113 25.3641 97.6616 24.9433C97.9223 24.5225 98.1047 24.0363 98.209 23.4846C98.3237 22.9329 98.3811 22.3392 98.3811 21.7033Z" fill="#0C7264"/>
<path d="M74.1687 16.9064V34.9999H69.6641V13.989H73.8402L74.1687 16.9064ZM84.8828 21.4088V21.7033C84.8828 22.8067 84.7368 23.8306 84.4448 24.775C84.1633 25.7194 83.7462 26.5423 83.1935 27.2436C82.6409 27.9355 81.9527 28.4779 81.1289 28.8706C80.3156 29.254 79.3771 29.4457 78.3135 29.4457C77.2812 29.4457 76.3845 29.2586 75.6233 28.8846C74.8621 28.5106 74.2208 27.987 73.6994 27.3137C73.1885 26.6311 72.7766 25.841 72.4638 24.9433C72.151 24.0456 71.9112 23.0825 71.7443 22.054V21.2825C71.9112 20.1792 72.151 19.1693 72.4638 18.2529C72.7766 17.3272 73.1885 16.5277 73.6994 15.8545C74.2208 15.1719 74.8569 14.6436 75.6076 14.2695C76.3688 13.8955 77.2604 13.7085 78.2823 13.7085C79.3563 13.7085 80.2999 13.8908 81.1133 14.2555C81.937 14.6202 82.6252 15.1438 83.1779 15.8264C83.741 16.509 84.1633 17.3225 84.4448 18.2669C84.7368 19.2114 84.8828 20.2586 84.8828 21.4088ZM80.3625 21.7033V21.4088C80.3625 20.7636 80.2999 20.1698 80.1748 19.6275C80.0601 19.0758 79.8724 18.5942 79.6117 18.1828C79.3615 17.7714 79.0278 17.4534 78.6107 17.229C78.204 16.9953 77.7087 16.8784 77.1248 16.8784C76.5096 16.8784 75.983 16.9672 75.5451 17.1449C75.1176 17.3225 74.7682 17.5797 74.4971 17.9163C74.226 18.2529 74.0227 18.655 73.8871 19.1225C73.7516 19.5901 73.6682 20.1184 73.6369 20.7075V22.6571C73.689 23.349 73.835 23.9708 74.0748 24.5225C74.3147 25.0649 74.6848 25.495 75.1853 25.8129C75.6858 26.1308 76.3428 26.2898 77.1561 26.2898C77.7505 26.2898 78.251 26.1729 78.6576 25.9392C79.0643 25.696 79.3928 25.3641 79.643 24.9433C79.9037 24.5225 80.0862 24.0363 80.1905 23.4846C80.3052 22.9329 80.3625 22.3392 80.3625 21.7033Z" fill="#0C7264"/>
<path d="M58.1833 12.2356L51.9895 29.165H47L55.4618 8.74316H58.6369L58.1833 12.2356ZM63.3292 29.165L57.1197 12.2356L56.6192 8.74316H59.8256L68.3343 29.165H63.3292ZM63.0477 21.5629V24.859H51.0197V21.5629H63.0477Z" fill="#0C7264"/>
<defs>
<filter id="filter0_d_61_113" x="0.0517578" y="6.26367" width="44.1797" height="37.231" filterUnits="userSpaceOnUse" color-interpolation-filters="sRGB">
<feFlood flood-opacity="0" result="BackgroundImageFix"/>
<feColorMatrix in="SourceAlpha" type="matrix" values="0 0 0 0 0 0 0 0 0 0 0 0 0 0 0 0 0 0 127 0" result="hardAlpha"/>
<feOffset dy="4"/>
<feGaussianBlur stdDeviation="2"/>
<feComposite in2="hardAlpha" operator="out"/>
<feColorMatrix type="matrix" values="0 0 0 0 0 0 0 0 0 0 0 0 0 0 0 0 0 0 0.25 0"/>
<feBlend mode="normal" in2="BackgroundImageFix" result="effect1_dropShadow_61_113"/>
<feBlend mode="normal" in="SourceGraphic" in2="effect1_dropShadow_61_113" result="shape"/>
</filter>
<filter id="filter1_d_61_113" x="0.0517578" y="6.26367" width="44.1797" height="37.231" filterUnits="userSpaceOnUse" color-interpolation-filters="sRGB">
<feFlood flood-opacity="0" result="BackgroundImageFix"/>
<feColorMatrix in="SourceAlpha" type="matrix" values="0 0 0 0 0 0 0 0 0 0 0 0 0 0 0 0 0 0 127 0" result="hardAlpha"/>
<feOffset dy="4"/>
<feGaussianBlur stdDeviation="2"/>
<feComposite in2="hardAlpha" operator="out"/>
<feColorMatrix type="matrix" values="0 0 0 0 0 0 0 0 0 0 0 0 0 0 0 0 0 0 0.25 0"/>
<feBlend mode="normal" in2="BackgroundImageFix" result="effect1_dropShadow_61_113"/>
<feBlend mode="normal" in="SourceGraphic" in2="effect1_dropShadow_61_113" result="shape"/>
</filter>
<linearGradient id="paint0_linear_61_113" x1="7.81491" y1="15.9604" x2="10.0214" y2="6.26052" gradientUnits="userSpaceOnUse">
<stop stop-color="#0C7264"/>
<stop offset="1" stop-color="#6DAAA2" stop-opacity="0.85"/>
</linearGradient>
<linearGradient id="paint1_linear_61_113" x1="25.248" y1="12.3622" x2="15.5066" y2="22.2194" gradientUnits="userSpaceOnUse">
<stop offset="0.501124" stop-color="#0C7264"/>
</linearGradient>
<linearGradient id="paint2_linear_61_113" x1="49.9214" y1="16.2637" x2="17.0228" y2="8.67001" gradientUnits="userSpaceOnUse">
<stop offset="0.366967" stop-color="#0C7264"/>
<stop offset="0.9999" stop-color="#6DAAA2"/>
</linearGradient>
</defs>
</svg>
