<svg width="232" height="40" viewBox="0 0 232 43" fill="none" xmlns="http://www.w3.org/2000/svg">
<path d="M4.17222 38.2944C0.234021 32.1668 3.43475 23.6706 10.3377 22.3232C11.4882 22.0986 12.6495 22.082 13.7889 22.3065C14.4726 22.4412 14.7121 22.2042 14.8952 21.5451C16.7007 15.0477 20.7474 11.1489 26.9697 9.87521C32.8938 8.66257 39.7796 12.5403 42.2367 18.4467C42.5257 19.1414 42.8818 19.4549 43.5902 19.6283C48.7157 20.8831 52.1292 25.7691 52.0353 31.6157C51.9534 36.7229 48.1786 41.318 43.1919 42.3425C42.6117 42.4617 42.0029 42.4512 41.4073 42.4515C31.6586 42.4567 21.9098 42.4172 12.1614 42.4732C8.83166 42.4923 6.25677 41.0773 4.17222 38.2944ZM35.2614 17.8989C36.0484 18.6346 36.3566 19.5052 35.8706 20.562C35.3778 21.6336 34.5523 22.0581 33.4676 21.8045C33.0116 21.6979 32.6859 21.8338 32.3367 22.1149C31.6513 22.6666 30.9383 23.1791 30.2384 23.7102C25.8968 27.0045 22.1816 30.8128 20.7997 36.5906C20.574 37.5343 19.9245 38.1699 18.982 38.3324C17.9831 38.5046 17.1355 38.2191 16.5261 37.2973C16.3563 37.0403 16.1786 36.6436 15.9529 36.5974C14.2606 36.2506 13.2063 34.734 11.7108 34.0301C10.8799 33.6389 10.4251 32.8819 10.7247 31.8863C11.0101 30.938 11.7419 30.6318 12.6079 30.8265C13.6557 31.0622 13.9087 31.8728 13.8014 32.9106C13.6857 34.0308 14.6071 34.2072 15.2391 34.6166C15.8064 34.9841 16.1861 34.7331 16.6749 34.246C18.2008 32.7256 17.8538 28.9842 15.8209 27.18C13.7303 25.3246 10.8116 25.1411 8.41818 26.7834C6.3109 28.2294 5.15827 31.3703 5.80851 33.8947C6.60724 36.9957 8.76541 38.9204 11.5851 38.9479C14.9846 38.9811 18.385 38.921 21.7843 38.9662C22.7526 38.9791 22.9568 38.5545 22.9792 37.6167C23.1042 32.3743 26.4778 28.1927 31.2743 27.2096C32.6645 26.9247 34.0693 26.6558 35.4155 26.2035C40.1328 24.6187 41.022 21.0581 37.6302 17.1915C34.471 13.5902 30.5444 12.3551 26.1017 13.6856C21.5656 15.0441 18.8919 18.4202 17.79 23.2711C17.644 23.9141 17.8996 24.3208 18.2891 24.7444C19.945 26.5452 20.7208 28.7148 20.6421 31.2409C20.6299 31.6306 20.4953 32.0641 20.8013 32.5343C21.7349 31.0072 22.5393 29.529 23.5705 28.2079C25.6784 25.5073 28.2912 23.4606 30.9903 21.5184C31.5716 21.1001 31.9817 20.699 31.9693 19.8172C31.9417 17.8499 33.3868 16.963 35.2614 17.8989ZM34.626 19.6819C34.6133 19.1965 34.3878 18.9478 33.9276 19.0174C33.6432 19.0604 33.479 19.273 33.4406 19.5756C33.4035 19.8687 33.4678 20.14 33.7377 20.2708C34.1653 20.478 34.4345 20.2617 34.626 19.6819ZM18.4645 36.5391C19.0504 36.4754 19.2744 36.1256 19.0466 35.5565C18.9078 35.2097 18.5406 35.1538 18.2785 35.3559C17.8119 35.7155 17.8132 36.1357 18.4645 36.5391Z" fill="url(#paint0_linear_128_343)"/>
<path d="M14.3858 7.64805C15.8148 11.5176 14.5846 14.8029 12.8002 18.0342C11.7798 17.1641 11.2319 15.7552 10.2608 11.7567C10.2702 12.9412 10.4495 14.1053 10.7306 15.2493C11.0108 16.3897 11.3338 17.5182 11.6478 18.6886C9.65926 18.2818 5.97767 13.7458 5.76948 10.1256C5.54917 6.29465 8.39218 0.898878 11.2263 0C11.1807 2.11123 12.5553 3.5634 13.3382 5.29481C13.6791 6.04894 14.0181 6.80409 14.3858 7.64805Z" fill="url(#paint1_linear_128_343)"/>
<path d="M52.9891 19.258C52.8076 18.633 52.6477 18.1016 52.5093 17.5638C52.312 16.7973 51.9927 16.279 51.1643 16.0314C50.1551 15.7298 49.6575 14.7992 49.8898 13.6906C50.068 12.8398 49.8245 12.2715 49.3642 11.6349C46.7201 7.97779 43.2858 5.55613 39.206 4.12456C38.6781 3.93932 38.2027 3.83207 37.6378 4.26045C36.8553 4.85381 35.979 4.7428 35.3275 3.92982C34.9777 3.49332 34.605 3.30052 34.0819 3.28438C30.49 3.17357 27.0294 3.89855 23.6304 5.07677C22.9866 5.29993 22.8662 5.86232 22.609 6.38568C22.094 7.43354 21.2572 7.98793 20.138 7.88706C19.0649 7.79035 18.3386 7.13048 18.0093 6.04598C17.6636 4.90751 17.9513 3.91702 18.7951 3.13194C19.7909 2.20553 21.3242 2.29318 22.1839 3.47787C22.6393 4.10541 22.9963 4.07154 23.5829 3.86866C27.1216 2.6446 30.7292 1.88056 34.4754 2.19901C34.8708 2.23263 35.0716 2.05029 35.3219 1.77525C36.3062 0.693962 37.3977 0.769214 38.0946 2.01821C38.3739 2.51861 38.7096 2.76188 39.1938 2.91719C43.8024 4.39544 47.6246 7.11402 50.5773 11.1894C50.8652 11.5868 51.1482 11.8036 51.6877 11.7937C53.505 11.7601 54.5197 13.4577 53.6461 15.1295C53.2664 15.8563 53.2945 16.4037 53.556 17.1267C54.4062 19.4771 54.91 21.9275 55.1834 24.4275C55.2441 24.9826 55.4435 25.3488 55.8538 25.7129C56.7925 26.546 56.8843 27.7858 56.164 28.6709C55.5195 29.4631 54.406 29.5519 53.6493 28.8715C52.8198 28.1255 52.6959 26.9852 53.5072 26.0195C54.1062 25.3065 54.036 24.5571 53.9213 23.7834C53.6997 22.2891 53.4532 20.7961 52.9891 19.258ZM19.7581 6.02763C20.3314 6.50164 20.8221 6.32281 21.1827 5.74552C21.4603 5.30107 21.3963 4.83212 21.0084 4.45231C20.6582 4.10931 20.27 4.05371 19.8973 4.37497C19.4084 4.79632 19.1802 5.29765 19.7581 6.02763Z" fill="url(#paint2_linear_128_343)"/>
<path d="M2.30227 16.2412C4.75598 14.9845 6.36909 15.2476 8.11082 16.9496C8.78246 17.6059 8.9002 18.3141 7.9566 19.1039C6.51193 20.3131 4.85973 20.7899 3.04089 19.9256C2.19711 19.5246 1.41602 18.983 0.474709 18.7851C-0.189042 18.6456 -0.0779023 18.1539 0.327061 17.7386C0.894049 17.1573 1.53315 16.6786 2.30227 16.2412Z" fill="#187329"/>
<path d="M55.1744 30.8547C54.826 33.1972 54.39 35.4201 53.6435 37.5541C53.4352 38.1497 53.6615 38.5072 53.9338 38.9582C54.5826 40.0328 54.4697 41.2624 53.7047 42.1577C53.0139 42.9663 51.8647 43.2277 50.9324 42.7884C49.971 42.3353 49.3731 41.2317 49.5025 40.0601C49.6329 38.8802 50.337 38.1884 51.3704 37.9676C52.1003 37.8117 52.4414 37.4077 52.6719 36.6951C53.2957 34.7668 53.7306 32.7962 53.9869 30.7781C54.0352 30.3979 54.1343 30.0376 54.5415 29.9943C55.0354 29.9418 55.1726 30.3067 55.1744 30.8547ZM51.2933 40.3605C51.3108 41.0188 51.6668 41.1938 52.1674 40.953C52.4866 40.7995 52.6687 40.4168 52.405 40.0765C52.0301 39.5925 51.6488 39.7212 51.2933 40.3605Z" fill="#E5733D"/>
<path d="M39.3938 37.9997C39.1886 37.9997 39.0121 37.9445 38.8644 37.834C38.7166 37.7144 38.5976 37.5303 38.5073 37.2817L36.7219 32.1733C36.648 31.9524 36.6234 31.7591 36.648 31.5934C36.6809 31.4185 36.7588 31.2805 36.882 31.1792C37.0051 31.078 37.1693 31.0273 37.3745 31.0273C37.5551 31.0273 37.7028 31.078 37.8178 31.1792C37.9327 31.2713 38.0312 31.4507 38.1133 31.7177L39.6032 36.3153H39.32L40.8591 31.6072C40.9248 31.4047 41.011 31.2575 41.1177 31.1654C41.2326 31.0734 41.3803 31.0273 41.5609 31.0273C41.7415 31.0273 41.8893 31.078 42.0042 31.1792C42.1191 31.2713 42.2053 31.4139 42.2628 31.6072L43.7773 36.3153H43.5187L45.0209 31.6763C45.103 31.4277 45.2056 31.2575 45.3287 31.1654C45.4601 31.0734 45.6037 31.0273 45.7597 31.0273C45.9567 31.0273 46.1086 31.0826 46.2153 31.193C46.322 31.3035 46.3835 31.4461 46.4 31.621C46.4164 31.7867 46.3876 31.9708 46.3138 32.1733L44.5407 37.2817C44.4586 37.5211 44.3396 37.7005 44.1836 37.8202C44.0359 37.9399 43.8594 37.9997 43.6542 37.9997C43.4489 37.9997 43.2683 37.9399 43.1124 37.8202C42.9646 37.7005 42.8497 37.5211 42.7676 37.2817L41.1546 32.4908H41.8564L40.2804 37.2679C40.1983 37.5165 40.0834 37.7005 39.9356 37.8202C39.7879 37.9399 39.6073 37.9997 39.3938 37.9997Z" fill="white"/>
<path d="M28.7619 38.0002C28.5157 38.0002 28.3269 37.9266 28.1955 37.7793C28.0642 37.6228 27.9985 37.4019 27.9985 37.1166V31.8977C27.9985 31.6123 28.0642 31.396 28.1955 31.2488C28.3269 31.1015 28.5116 31.0279 28.7496 31.0279C28.9877 31.0279 29.1724 31.1015 29.3037 31.2488C29.4351 31.396 29.5007 31.6123 29.5007 31.8977V32.8365L29.3653 32.4914C29.5459 32.0035 29.825 31.6353 30.2026 31.3868C30.5884 31.1291 31.0234 31.0002 31.5078 31.0002C31.9921 31.0002 32.3902 31.1015 32.7021 31.304C33.014 31.5065 33.248 31.8148 33.404 32.229C33.5599 32.634 33.6379 33.1495 33.6379 33.7754V37.1166C33.6379 37.4019 33.5722 37.6228 33.4409 37.7793C33.3096 37.9266 33.1208 38.0002 32.8745 38.0002C32.6282 38.0002 32.4353 37.9266 32.2958 37.7793C32.1644 37.6228 32.0988 37.4019 32.0988 37.1166V33.8582C32.0988 33.3336 32.0085 32.9516 31.8279 32.7123C31.6555 32.473 31.3846 32.3533 31.0152 32.3533C30.5638 32.3533 30.2026 32.5144 29.9317 32.8365C29.669 33.1495 29.5377 33.5683 29.5377 34.0929V37.1166C29.5377 37.7057 29.2791 38.0002 28.7619 38.0002Z" fill="white"/>
<path d="M12.9292 32.2044C13.0003 32.4413 12.7885 32.6746 12.4561 32.7253C12.1236 32.776 11.7964 32.625 11.7252 32.3881C11.654 32.1511 11.8658 31.9179 12.1983 31.8671C12.5308 31.8164 12.858 31.9674 12.9292 32.2044Z" fill="white"/>
<path d="M37.4433 2.92215C37.5011 3.23448 37.1926 3.52102 36.7544 3.56217C36.3161 3.60331 35.9141 3.38347 35.8564 3.07114C35.7986 2.75881 36.1071 2.47226 36.5453 2.43112C36.9836 2.38998 37.3856 2.60982 37.4433 2.92215Z" fill="white"/>
<path d="M52.6468 13.9204C52.718 14.1573 52.4792 14.3946 52.1134 14.4504C51.7477 14.5062 51.3935 14.3594 51.3224 14.1224C51.2512 13.8855 51.49 13.6481 51.8557 13.5923C52.2214 13.5365 52.5756 13.6834 52.6468 13.9204Z" fill="white"/>
<path d="M55.7771 27.5161C55.8625 27.8005 55.6083 28.0803 55.2093 28.1412C54.8103 28.2021 54.4177 28.0209 54.3323 27.7365C54.2468 27.4522 54.501 27.1723 54.9 27.1115C55.299 27.0506 55.6917 27.2318 55.7771 27.5161Z" fill="white"/>
<path d="M2.40015 17.9899C2.40015 17.9899 4.63662 17.9899 6.10777 17.9899C7.57891 17.9899 8.00339 17.5512 8.55667 17.5512C9.10994 17.5512 9.18615 18.4287 8.55667 18.4287C7.92719 18.4287 2.40015 17.9899 2.40015 17.9899Z" fill="white"/>
<path d="M226.035 36.5004C224.456 36.5004 223.096 36.1231 221.953 35.3685C220.828 34.5895 219.957 33.5062 219.341 32.1187C218.742 30.7068 218.443 29.0514 218.443 27.1527C218.443 25.3026 218.733 23.6838 219.313 22.2962C219.894 20.8843 220.701 19.7889 221.735 19.0099C222.787 18.2066 223.976 17.8049 225.3 17.8049C226.261 17.8049 227.132 18.024 227.912 18.4622C228.692 18.876 229.363 19.4846 229.926 20.2879C230.488 21.0669 230.914 22.0285 231.205 23.1726C231.495 24.2924 231.64 25.546 231.64 26.9336C231.64 27.3961 231.531 27.7491 231.313 27.9925C231.096 28.2116 230.778 28.3212 230.361 28.3212H221.817V25.473H228.674L228.239 25.9842C228.239 24.9861 228.13 24.1585 227.912 23.5012C227.694 22.8196 227.377 22.3084 226.96 21.9676C226.561 21.6268 226.062 21.4564 225.463 21.4564C224.792 21.4564 224.22 21.6633 223.749 22.0771C223.277 22.491 222.914 23.0874 222.66 23.8664C222.406 24.6453 222.279 25.5826 222.279 26.678V26.9701C222.279 28.8202 222.597 30.1834 223.232 31.0598C223.885 31.9361 224.846 32.3743 226.116 32.3743C226.552 32.3743 227.05 32.3013 227.613 32.1552C228.175 32.0091 228.701 31.7779 229.191 31.4614C229.608 31.1936 229.98 31.1084 230.307 31.2058C230.633 31.2788 230.887 31.4736 231.069 31.79C231.25 32.1065 231.35 32.4717 231.368 32.8855C231.404 33.2993 231.341 33.7132 231.177 34.127C231.014 34.5165 230.742 34.8451 230.361 35.1129C229.744 35.5754 229.046 35.9162 228.266 36.1353C227.504 36.3787 226.76 36.5004 226.035 36.5004Z" fill="url(#paint3_linear_128_343)"/>
<path d="M210.818 36.5004C210.02 36.5004 209.195 36.4031 208.342 36.2083C207.508 36.0136 206.746 35.6849 206.056 35.2224C205.694 34.979 205.43 34.6747 205.267 34.3096C205.122 33.9201 205.059 33.5306 205.077 33.1411C205.095 32.7516 205.186 32.3986 205.349 32.0822C205.53 31.7657 205.757 31.5588 206.029 31.4614C206.319 31.3397 206.637 31.3762 206.982 31.571C207.725 31.9848 208.406 32.2769 209.022 32.4473C209.639 32.6177 210.247 32.7029 210.846 32.7029C211.626 32.7029 212.188 32.5447 212.533 32.2282C212.895 31.8874 213.077 31.4492 213.077 30.9137C213.077 30.4268 212.959 30.0617 212.723 29.8183C212.487 29.5748 212.143 29.4044 211.689 29.307L208.832 28.6133C207.707 28.3455 206.836 27.7978 206.22 26.9701C205.621 26.1181 205.322 25.0348 205.322 23.7203C205.322 22.5032 205.576 21.4564 206.084 20.58C206.592 19.6794 207.29 18.9977 208.179 18.5352C209.086 18.0484 210.111 17.8049 211.254 17.8049C212.07 17.8049 212.823 17.9023 213.512 18.097C214.202 18.2918 214.864 18.6083 215.499 19.0464C215.825 19.2655 216.052 19.5576 216.179 19.9228C216.324 20.2879 216.369 20.6652 216.315 21.0547C216.279 21.4442 216.17 21.7972 215.988 22.1137C215.807 22.4301 215.571 22.637 215.281 22.7344C215.009 22.8318 214.691 22.7831 214.329 22.5884C213.748 22.2232 213.213 21.9676 212.723 21.8215C212.233 21.6511 211.762 21.5659 211.308 21.5659C210.492 21.5659 209.902 21.7485 209.539 22.1137C209.177 22.4545 208.995 22.8926 208.995 23.4282C208.995 23.842 209.095 24.195 209.294 24.4871C209.512 24.7549 209.839 24.9375 210.274 25.0348L213.131 25.7286C214.31 25.9964 215.208 26.5319 215.825 27.3353C216.442 28.1142 216.75 29.1853 216.75 30.5485C216.75 32.3986 216.206 33.8592 215.118 34.9303C214.047 35.9771 212.614 36.5004 210.818 36.5004Z" fill="url(#paint4_linear_128_343)"/>
<path d="M200.489 36.391C199.818 36.391 199.301 36.1354 198.938 35.6242C198.594 35.0886 198.421 34.3461 198.421 33.3968V20.9088C198.421 19.935 198.594 19.1926 198.938 18.6814C199.301 18.1458 199.818 17.878 200.489 17.878C201.142 17.878 201.641 18.1458 201.986 18.6814C202.349 19.1926 202.53 19.935 202.53 20.9088V33.3968C202.53 34.3461 202.358 35.0886 202.013 35.6242C201.668 36.1354 201.161 36.391 200.489 36.391ZM200.489 14.8838C199.727 14.8838 199.138 14.6526 198.721 14.1901C198.321 13.7032 198.122 13.0216 198.122 12.1452C198.122 11.2445 198.321 10.5629 198.721 10.1004C199.138 9.61355 199.727 9.37012 200.489 9.37012C201.251 9.37012 201.832 9.61355 202.231 10.1004C202.63 10.5629 202.829 11.2445 202.829 12.1452C202.829 13.0216 202.63 13.7032 202.231 14.1901C201.832 14.6526 201.251 14.8838 200.489 14.8838Z" fill="url(#paint5_linear_128_343)"/>
<path d="M174.122 36.4274C173.542 36.4274 173.07 36.2449 172.707 35.8797C172.344 35.4902 172.054 34.906 171.836 34.127L166.34 13.3867C166.104 12.4617 166.149 11.6705 166.476 11.0132C166.82 10.356 167.41 10.0273 168.245 10.0273C168.825 10.0273 169.269 10.2099 169.578 10.5751C169.904 10.9402 170.167 11.5123 170.367 12.2913L174.857 30.2199H173.687L178.421 12.3278C178.639 11.5488 178.902 10.9767 179.211 10.6116C179.537 10.2221 179.963 10.0273 180.49 10.0273C180.997 10.0273 181.406 10.2221 181.714 10.6116C182.022 10.9767 182.285 11.561 182.503 12.3643L187.02 30.2199H186.013L190.585 12.2913C190.766 11.5366 191.02 10.9767 191.347 10.6116C191.673 10.2221 192.118 10.0273 192.68 10.0273C193.388 10.0273 193.905 10.356 194.231 11.0132C194.558 11.6705 194.594 12.4617 194.34 13.3867L188.789 34.1635C188.589 34.9182 188.317 35.4902 187.973 35.8797C187.628 36.2449 187.156 36.4274 186.558 36.4274C185.977 36.4274 185.514 36.2449 185.17 35.8797C184.825 35.4902 184.544 34.906 184.326 34.127L180.027 17.805H180.68L176.326 34.1635C176.109 34.9182 175.827 35.4902 175.483 35.8797C175.156 36.2449 174.703 36.4274 174.122 36.4274Z" fill="url(#paint6_linear_128_343)"/>
<path d="M162.223 36.5006C160.971 36.5006 159.919 36.2207 159.067 35.6608C158.232 35.1009 157.606 34.2854 157.189 33.2143C156.79 32.1432 156.59 30.7921 156.59 29.1611V22.2964H155.447C154.94 22.2964 154.54 22.1138 154.25 21.7487C153.978 21.3835 153.842 20.8845 153.842 20.2516C153.842 19.57 153.978 19.0588 154.25 18.718C154.54 18.3528 154.94 18.1702 155.447 18.1702H156.59V15.3951C156.59 14.4701 156.772 13.7763 157.135 13.3138C157.497 12.8269 158.005 12.5835 158.658 12.5835C159.33 12.5835 159.838 12.8269 160.182 13.3138C160.527 13.7763 160.699 14.4701 160.699 15.3951V18.1702H163.284C163.792 18.1702 164.182 18.3528 164.454 18.718C164.726 19.0588 164.863 19.57 164.863 20.2516C164.863 20.8845 164.726 21.3835 164.454 21.7487C164.182 22.1138 163.792 22.2964 163.284 22.2964H160.699V28.9421C160.699 29.9645 160.872 30.7313 161.216 31.2425C161.579 31.7537 162.15 32.0093 162.931 32.0093C163.203 32.0093 163.457 31.9728 163.692 31.8998C163.928 31.8267 164.146 31.778 164.346 31.7537C164.599 31.7293 164.808 31.8389 164.971 32.0823C165.135 32.3014 165.216 32.8004 165.216 33.5794C165.216 34.1637 165.144 34.6749 164.999 35.113C164.853 35.5512 164.599 35.8677 164.237 36.0624C164.001 36.1841 163.674 36.2815 163.257 36.3545C162.858 36.4519 162.513 36.5006 162.223 36.5006Z" fill="url(#paint7_linear_128_343)"/>
<path d="M147.749 36.5004C146.171 36.5004 144.811 36.1231 143.668 35.3685C142.543 34.5895 141.672 33.5062 141.055 32.1187C140.457 30.7068 140.157 29.0514 140.157 27.1527C140.157 25.3026 140.448 23.6838 141.028 22.2962C141.609 20.8843 142.416 19.7889 143.45 19.0099C144.502 18.2066 145.69 17.8049 147.015 17.8049C147.976 17.8049 148.847 18.024 149.627 18.4622C150.407 18.876 151.078 19.4846 151.641 20.2879C152.203 21.0669 152.629 22.0285 152.919 23.1726C153.21 24.2924 153.355 25.546 153.355 26.9336C153.355 27.3961 153.246 27.7491 153.028 27.9925C152.811 28.2116 152.493 28.3212 152.076 28.3212H143.532V25.473H150.389L149.953 25.9842C149.953 24.9861 149.845 24.1585 149.627 23.5012C149.409 22.8196 149.092 22.3084 148.675 21.9676C148.275 21.6268 147.777 21.4564 147.178 21.4564C146.507 21.4564 145.935 21.6633 145.464 22.0771C144.992 22.491 144.629 23.0874 144.375 23.8664C144.121 24.6453 143.994 25.5826 143.994 26.678V26.9701C143.994 28.8202 144.312 30.1834 144.947 31.0598C145.6 31.9361 146.561 32.3743 147.831 32.3743C148.266 32.3743 148.765 32.3013 149.328 32.1552C149.89 32.0091 150.416 31.7779 150.906 31.4614C151.323 31.1936 151.695 31.1084 152.022 31.2058C152.348 31.2788 152.602 31.4736 152.783 31.79C152.965 32.1065 153.065 32.4717 153.083 32.8855C153.119 33.2993 153.056 33.7132 152.892 34.127C152.729 34.5165 152.457 34.8451 152.076 35.1129C151.459 35.5754 150.761 35.9162 149.981 36.1353C149.219 36.3787 148.475 36.5004 147.749 36.5004Z" fill="url(#paint8_linear_128_343)"/>
<path d="M122.635 36.4274C122.001 36.4274 121.511 36.1962 121.166 35.7337C120.84 35.2468 120.676 34.5652 120.676 33.6888V12.8755C120.676 11.9504 120.84 11.2445 121.166 10.7576C121.511 10.2708 121.964 10.0273 122.527 10.0273C123.016 10.0273 123.388 10.1612 123.642 10.429C123.914 10.6724 124.223 11.0863 124.567 11.6705L134.119 27.9926H133.384V12.7294C133.384 11.8774 133.547 11.2202 133.874 10.7576C134.218 10.2708 134.708 10.0273 135.343 10.0273C135.978 10.0273 136.459 10.2708 136.785 10.7576C137.13 11.2202 137.302 11.8774 137.302 12.7294V33.7984C137.302 34.6017 137.148 35.2468 136.84 35.7337C136.531 36.1962 136.114 36.4274 135.588 36.4274C135.08 36.4274 134.672 36.2936 134.363 36.0258C134.073 35.758 133.756 35.332 133.411 34.7478L123.887 18.4257H124.595V33.6888C124.595 34.5652 124.431 35.2468 124.105 35.7337C123.778 36.1962 123.289 36.4274 122.635 36.4274Z" fill="url(#paint9_linear_128_343)"/>
<path d="M105.782 43C105.111 43 104.594 42.7566 104.231 42.2698C103.886 41.8072 103.714 41.1135 103.714 40.1884V20.6531C103.714 19.7524 103.886 19.0708 104.231 18.6083C104.594 18.1214 105.093 17.878 105.728 17.878C106.399 17.878 106.907 18.1214 107.252 18.6083C107.596 19.0708 107.769 19.7524 107.769 20.6531V23.1361L107.469 21.712C107.741 20.5435 108.286 19.6063 109.102 18.9004C109.936 18.1701 110.889 17.8049 111.959 17.8049C113.12 17.8049 114.136 18.1823 115.007 18.9369C115.896 19.6915 116.585 20.7626 117.075 22.1502C117.565 23.5377 117.809 25.1931 117.809 27.1162C117.809 29.0393 117.565 30.7068 117.075 32.1187C116.585 33.5306 115.905 34.6138 115.034 35.3685C114.163 36.1231 113.138 36.5004 111.959 36.5004C110.907 36.5004 109.973 36.1596 109.156 35.478C108.34 34.7721 107.787 33.8592 107.496 32.7394H107.823V40.1884C107.823 41.1135 107.642 41.8072 107.279 42.2698C106.934 42.7566 106.435 43 105.782 43ZM110.735 32.3743C111.315 32.3743 111.823 32.1795 112.258 31.79C112.712 31.4006 113.057 30.8285 113.292 30.0739C113.546 29.2949 113.673 28.309 113.673 27.1162C113.673 25.3391 113.401 24.0368 112.857 23.2091C112.313 22.3571 111.605 21.9311 110.735 21.9311C110.154 21.9311 109.637 22.1137 109.184 22.4788C108.748 22.844 108.403 23.416 108.15 24.195C107.896 24.9496 107.769 25.9234 107.769 27.1162C107.769 28.8932 108.041 30.2199 108.585 31.0963C109.129 31.9483 109.846 32.3743 110.735 32.3743Z" fill="url(#paint10_linear_128_343)"/>
<path d="M89.174 43C88.5028 43 87.9858 42.7566 87.623 42.2698C87.2783 41.8072 87.106 41.1135 87.106 40.1884V20.6531C87.106 19.7524 87.2783 19.0708 87.623 18.6083C87.9858 18.1214 88.4847 17.878 89.1196 17.878C89.7908 17.878 90.2987 18.1214 90.6434 18.6083C90.9881 19.0708 91.1604 19.7524 91.1604 20.6531V23.1361L90.8611 21.712C91.1332 20.5435 91.6774 19.6063 92.4937 18.9004C93.3282 18.1701 94.2806 17.8049 95.3509 17.8049C96.5119 17.8049 97.5278 18.1823 98.3986 18.9369C99.2874 19.6915 99.9768 20.7626 100.467 22.1502C100.956 23.5377 101.201 25.1931 101.201 27.1162C101.201 29.0393 100.956 30.7068 100.467 32.1187C99.9768 33.5306 99.2965 34.6138 98.4258 35.3685C97.555 36.1231 96.5301 36.5004 95.3509 36.5004C94.2988 36.5004 93.3645 36.1596 92.5482 35.478C91.7318 34.7721 91.1785 33.8592 90.8883 32.7394H91.2148V40.1884C91.2148 41.1135 91.0334 41.8072 90.6706 42.2698C90.3259 42.7566 89.8271 43 89.174 43ZM94.1264 32.3743C94.7069 32.3743 95.2149 32.1795 95.6502 31.79C96.1038 31.4006 96.4484 30.8285 96.6843 30.0739C96.9382 29.2949 97.0652 28.309 97.0652 27.1162C97.0652 25.3391 96.7931 24.0368 96.2489 23.2091C95.7047 22.3571 94.9972 21.9311 94.1264 21.9311C93.5459 21.9311 93.0289 22.1137 92.5754 22.4788C92.14 22.844 91.7953 23.416 91.5414 24.195C91.2874 24.9496 91.1604 25.9234 91.1604 27.1162C91.1604 28.8932 91.4325 30.2199 91.9767 31.0963C92.521 31.9483 93.2375 32.3743 94.1264 32.3743Z" fill="url(#paint11_linear_128_343)"/>
<path d="M67.5159 36.4274C67.0079 36.4274 66.5907 36.2692 66.2641 35.9527C65.9558 35.6363 65.7562 35.2103 65.6655 34.6747C65.5929 34.1392 65.6746 33.5428 65.9104 32.8855L72.8764 12.4008C73.1667 11.5731 73.5114 10.9767 73.9105 10.6116C74.3096 10.2221 74.7721 10.0273 75.2982 10.0273C75.8243 10.0273 76.2869 10.2221 76.686 10.6116C77.0851 10.9767 77.4207 11.5731 77.6928 12.4008L84.7133 32.8855C84.9491 33.5428 85.0307 34.1514 84.9582 34.7112C84.9037 35.2468 84.7223 35.6728 84.4139 35.9893C84.1055 36.2814 83.7064 36.4274 83.2166 36.4274C82.5999 36.4274 82.1191 36.2327 81.7745 35.8432C81.4479 35.4537 81.1577 34.8451 80.9037 34.0175L79.271 28.9419L80.9581 30.5121H69.6111L71.2982 28.9419L69.6927 34.0175C69.4206 34.8695 69.1304 35.4902 68.822 35.8797C68.5317 36.2449 68.0964 36.4274 67.5159 36.4274ZM75.2438 16.3809L71.7608 27.5179L71.0261 26.0938H79.5432L78.8085 27.5179L75.2982 16.3809H75.2438Z" fill="url(#paint12_linear_128_343)"/>
<defs>
<linearGradient id="paint0_linear_128_343" x1="7.32388" y1="42.64" x2="31.5117" y2="12.5711" gradientUnits="userSpaceOnUse">
<stop offset="0.000999756" stop-color="#E4733D"/>
<stop offset="0.549072" stop-color="#819911"/>
<stop offset="0.988255" stop-color="#19715F"/>
</linearGradient>
<linearGradient id="paint1_linear_128_343" x1="6.15681" y1="1.7551" x2="8.337" y2="18.9482" gradientUnits="userSpaceOnUse">
<stop offset="0.0759998" stop-color="#58AA23"/>
<stop offset="1" stop-color="#116927"/>
</linearGradient>
<linearGradient id="paint2_linear_128_343" x1="20.2635" y1="4.71005" x2="55.3801" y2="21.6386" gradientUnits="userSpaceOnUse">
<stop offset="0.35192" stop-color="#19715F"/>
<stop offset="0.830631" stop-color="#819911"/>
</linearGradient>
<linearGradient id="paint3_linear_128_343" x1="65.0397" y1="20.6895" x2="240.832" y2="20.6895" gradientUnits="userSpaceOnUse">
<stop stop-color="#EB7140"/>
<stop offset="0.447681" stop-color="#819911"/>
<stop offset="1" stop-color="#19715F"/>
</linearGradient>
<linearGradient id="paint4_linear_128_343" x1="65.0396" y1="20.6895" x2="240.832" y2="20.6895" gradientUnits="userSpaceOnUse">
<stop stop-color="#EB7140"/>
<stop offset="0.447681" stop-color="#819911"/>
<stop offset="1" stop-color="#19715F"/>
</linearGradient>
<linearGradient id="paint5_linear_128_343" x1="65.0394" y1="20.6896" x2="240.832" y2="20.6896" gradientUnits="userSpaceOnUse">
<stop stop-color="#EB7140"/>
<stop offset="0.447681" stop-color="#819911"/>
<stop offset="1" stop-color="#19715F"/>
</linearGradient>
<linearGradient id="paint6_linear_128_343" x1="65.0395" y1="20.6895" x2="240.832" y2="20.6895" gradientUnits="userSpaceOnUse">
<stop stop-color="#EB7140"/>
<stop offset="0.447681" stop-color="#819911"/>
<stop offset="1" stop-color="#19715F"/>
</linearGradient>
<linearGradient id="paint7_linear_128_343" x1="65.0397" y1="20.6897" x2="240.832" y2="20.6897" gradientUnits="userSpaceOnUse">
<stop stop-color="#EB7140"/>
<stop offset="0.447681" stop-color="#819911"/>
<stop offset="1" stop-color="#19715F"/>
</linearGradient>
<linearGradient id="paint8_linear_128_343" x1="65.0396" y1="20.6895" x2="240.832" y2="20.6895" gradientUnits="userSpaceOnUse">
<stop stop-color="#EB7140"/>
<stop offset="0.447681" stop-color="#819911"/>
<stop offset="1" stop-color="#19715F"/>
</linearGradient>
<linearGradient id="paint9_linear_128_343" x1="65.0396" y1="20.6895" x2="240.832" y2="20.6895" gradientUnits="userSpaceOnUse">
<stop stop-color="#EB7140"/>
<stop offset="0.447681" stop-color="#819911"/>
<stop offset="1" stop-color="#19715F"/>
</linearGradient>
<linearGradient id="paint10_linear_128_343" x1="65.0395" y1="20.6895" x2="240.832" y2="20.6895" gradientUnits="userSpaceOnUse">
<stop stop-color="#EB7140"/>
<stop offset="0.447681" stop-color="#819911"/>
<stop offset="1" stop-color="#19715F"/>
</linearGradient>
<linearGradient id="paint11_linear_128_343" x1="65.0397" y1="20.6895" x2="240.832" y2="20.6895" gradientUnits="userSpaceOnUse">
<stop stop-color="#EB7140"/>
<stop offset="0.447681" stop-color="#819911"/>
<stop offset="1" stop-color="#19715F"/>
</linearGradient>
<linearGradient id="paint12_linear_128_343" x1="65.0396" y1="20.6895" x2="240.832" y2="20.6895" gradientUnits="userSpaceOnUse">
<stop stop-color="#EB7140"/>
<stop offset="0.447681" stop-color="#819911"/>
<stop offset="1" stop-color="#19715F"/>
</linearGradient>
</defs>
</svg>
